<svg width="1610" height="1610" viewBox="0 0 1610 1610" fill="none" xmlns="http://www.w3.org/2000/svg">
<g clip-path="url(#clip0_1408_77)">
<path d="M377.657 461C379.66 461.85 381.83 461.527 383.912 461.826C391.852 462.965 399.454 465.298 406.966 467.968C412.052 469.775 417.136 471.6 422.041 473.878C426.608 475.998 430.717 478.696 433.873 482.718C435.724 485.077 437.678 487.357 439.626 489.639C444.027 494.794 445.04 500.779 443.905 507.253C443.175 511.417 441.69 515.352 439.77 519.105C436.373 525.746 432.876 532.337 429.464 538.971C427.057 543.651 425.382 548.579 424.691 553.816C424.659 554.06 424.742 554.32 424.792 554.756C427.659 553.806 429.521 551.706 431.304 549.579C434.962 545.213 437.013 540.038 438.481 534.616C440.113 528.587 440.992 522.368 443.073 516.447C444.775 511.605 447.083 507.177 451.143 503.844C454.695 500.927 458.861 499.461 463.294 498.617C468.426 497.637 473.635 497.239 478.814 496.632C487.903 495.569 496.992 494.501 506.097 493.599C512.401 492.975 518.719 492.566 525.028 493.864C531.046 495.102 536.124 497.786 539.968 502.677C541.927 505.17 544.012 507.564 546.036 510.005C549.041 513.627 550.768 517.655 550.523 522.5C550.29 527.116 548.223 530.686 544.801 533.554C541.947 535.947 538.576 537.479 535.144 538.841C531.72 540.2 528.286 541.537 524.813 542.763C515.903 545.909 509.741 552.039 505.545 560.325C499.046 573.16 494.381 586.659 491.177 600.662C489.076 609.842 487.694 619.137 486.962 628.536C486.388 635.9 486.259 643.28 486.609 650.629C487.369 666.589 490.015 682.259 494.996 697.481C497.662 705.628 494.157 712.756 486.011 715.623C481.553 717.191 476.947 717.401 472.303 717.176C465.291 716.836 458.275 716.534 451.277 716.003C442.243 715.319 433.144 715.326 424.2 713.613C416.293 712.099 408.991 709.278 403.379 703.251C400.053 699.679 396.984 695.864 394.068 691.943C391.428 688.393 390.174 684.359 390.108 679.945C390.101 679.464 390.223 678.951 389.797 678.376C388.639 681.014 387.697 683.657 386.192 686.035C382.037 692.601 376.086 696.916 368.979 699.744C362.604 702.28 355.918 703.383 349.099 703.088C342.501 702.804 336.01 701.589 329.689 699.603C320.763 696.799 312.033 693.489 303.534 689.571C297.977 687.008 293.262 683.42 289.569 678.498C288.233 676.718 286.676 675.108 285.291 673.363C283.686 671.343 282.283 669.207 281.64 666.636C281.466 665.942 281.409 665.099 280.714 664.601V660.476C281.333 660.171 281.43 659.508 281.562 658.978C282.582 654.924 284.907 651.697 287.827 648.821C292.261 644.453 297.454 641.087 302.679 637.804C314.344 630.475 323.783 620.923 331.451 609.549C340.987 595.402 347.227 579.755 352.295 563.589C356.139 551.324 359.157 538.836 361.963 526.301C363.047 521.458 363.604 516.521 362.705 511.53C362.22 508.841 362.238 508.716 359.693 508.266C356.703 507.737 354.165 506.366 352.191 504.113C349.708 501.279 347.336 498.345 344.987 495.396C341.346 490.825 340.657 485.612 342.014 480.088C343.195 475.28 346.322 471.749 350.102 468.791C356.104 464.093 363.072 461.962 370.584 461.379C371.231 461.328 371.971 461.666 372.501 460.997H377.658L377.657 461ZM287.291 666.336C292.255 670.126 297.416 673.175 302.883 675.693C317.586 682.463 332.967 685.528 349.131 683.611C357.285 682.643 363.839 678.781 368.421 671.776C371.192 667.54 372.742 662.851 373.963 658.014C375.889 650.384 375.587 642.549 375.972 634.787C376.192 630.342 376.064 625.878 376.573 621.443C377.16 616.317 378.157 611.289 380.222 606.532C383.775 598.34 389.595 592.598 398.452 590.542C407.228 588.505 415.524 590.138 423.129 594.865C429.978 599.122 433.823 605.378 434.441 613.459C434.906 619.541 433.794 625.385 431.531 631.055C428.507 638.629 423.968 645.261 419.05 651.676C414.46 657.663 409.66 663.5 405.726 669.963C403.809 673.112 401.924 676.294 400.891 679.87C399.477 684.765 400.977 687.996 405.582 690.138C406.125 690.391 406.689 690.607 407.256 690.8C420.826 695.433 434.823 697.636 449.12 697.959C456.406 698.125 463.667 697.503 470.878 696.461C473.81 696.038 476.784 695.717 479.725 694.739C479.473 693.898 479.281 693.157 479.034 692.436C473.08 675.069 469.902 657.157 469.088 638.866C468.684 629.804 468.935 620.714 469.814 611.641C470.833 601.137 472.557 590.778 475.198 580.575C478.319 568.516 482.185 556.726 488.608 545.939C493.301 538.058 498.911 530.974 506.486 525.617C512.37 521.456 518.859 519.031 526.103 518.787C529.297 518.68 531.722 517.092 532.26 514.344C532.856 511.293 532.536 508.463 529.265 506.552C527.099 505.286 524.786 504.484 522.236 504.299C516.736 503.9 511.276 504.616 505.798 504.789C499.726 504.98 493.663 505.488 487.591 505.7C483.907 505.828 480.23 505.977 476.569 506.412C472.12 506.941 467.787 507.913 463.753 509.931C457.269 513.175 453.709 518.787 451.382 525.365C449.201 531.526 448.227 537.979 446.804 544.324C445.753 549.013 444.498 553.633 442.164 557.894C437.885 565.706 429.229 569.299 421.427 565.913C412.656 562.106 407.947 554.988 407.012 545.567C406.26 537.98 408.658 530.981 412.067 524.333C414.73 519.137 417.986 514.294 421.36 509.526C423.19 506.941 425.109 504.402 426.433 501.483C428.353 497.248 427.839 493.333 425.06 489.653C423.101 487.058 420.554 485.187 417.689 483.756C409.676 479.755 401.192 477.03 392.561 474.756C385.457 472.883 378.264 472.071 370.939 473.327C364.925 474.359 359.333 476.399 354.558 480.289C352.6 481.884 350.619 483.525 349.427 486.056C356.121 486.818 360.968 490.256 364.862 495.232C369.56 501.235 371.196 508.262 371.346 515.675C371.448 520.73 370.728 525.75 369.645 530.689C366.853 543.408 363.689 556.037 360.017 568.531C356.021 582.128 351.163 595.389 344.22 607.81C338.014 618.914 330.316 628.785 320.556 637.033C314.394 642.241 307.796 646.886 301.57 652.006C296.399 656.259 291.423 660.694 287.292 666.339L287.291 666.336ZM391.753 669.915C393.645 665.645 395.966 661.676 398.51 657.838C406.281 646.114 414.082 634.41 421.862 622.693C422.429 621.837 422.982 620.962 423.438 620.045C424.55 617.813 424.777 615.488 424.048 613.074C423.758 612.114 423.246 611.461 422.302 611.027C419.149 609.576 415.924 609.312 412.577 610.189C406.071 611.894 401.425 616.001 397.929 621.559C393.732 628.23 392.479 635.734 392.227 643.398C391.938 652.211 392.49 661.047 391.75 669.915H391.753Z" fill="#007CFF"/>
<path d="M1381.64 533.678C1380.79 535.123 1381.18 536.81 1380.67 538.362C1379 543.417 1376.28 547.866 1372.96 551.932C1365.86 560.629 1358.6 569.194 1351.47 577.868C1342.09 589.286 1333.38 601.174 1326.73 614.441C1322.67 622.52 1319.97 631.11 1317.11 639.648C1314.6 647.129 1312.07 654.621 1307.96 661.415C1297.98 677.894 1283.77 688.707 1264.69 692.197C1247.96 695.256 1233.29 690.54 1221.07 678.633C1216.27 673.953 1212.09 668.699 1208.22 663.248C1202.47 655.139 1199.89 645.984 1200.79 636.061C1201.39 629.463 1203.53 623.357 1208.21 618.375C1211.91 614.439 1216.39 612.303 1221.81 612.068C1226.25 611.874 1230.33 612.841 1233.83 615.69C1235.3 616.888 1236.5 618.378 1237.56 619.929C1239.44 622.709 1242.06 623.125 1245.03 622.553C1248.27 621.928 1250.63 620.057 1252.15 617.146C1254.2 613.223 1254.22 609.04 1253.46 604.845C1252.2 597.847 1249.45 591.417 1245.77 585.346C1244.49 583.22 1242.56 581.811 1240.75 580.249C1236.03 576.185 1230.54 573.324 1225.19 570.241C1219.26 566.817 1214 562.677 1209.86 557.16C1207.44 553.941 1204.59 551.057 1202.54 547.551C1198.73 541.026 1199.22 532.495 1203.84 527.034C1206.71 523.634 1210.29 521.14 1214.33 519.312C1220.47 516.531 1226.97 515.035 1233.58 513.895C1240.59 512.686 1247.62 511.562 1254.73 511.636C1261.35 511.703 1267.88 512.654 1273.81 516.022C1277.05 517.866 1279.92 520.159 1282.21 523.094C1285.53 527.339 1289.41 531.144 1292.2 536.237C1292.6 534.841 1292.88 533.748 1293.22 532.676C1296.41 522.801 1303.14 515.983 1312.05 511.157C1317.46 508.231 1323.34 506.654 1329.42 505.833C1334.6 505.133 1339.82 504.611 1345.04 504.914C1350.76 505.246 1356.51 505.167 1362.17 506.321C1366.1 507.122 1369.39 508.872 1371.85 512.12C1373.56 514.369 1375.36 516.555 1377.23 518.679C1379.63 521.413 1381.2 524.456 1381.25 528.163C1381.26 528.513 1381.3 528.84 1381.64 529.042V533.681L1381.64 533.678ZM1247.9 521.704C1242.58 521.587 1236.24 521.859 1229.96 522.838C1223.8 523.799 1218.15 525.883 1213.96 530.795C1210.37 534.999 1208.91 539.693 1211.02 545.074C1211.75 546.926 1212.9 548.524 1214.26 549.979C1217.43 553.344 1221.29 555.737 1225.32 557.865C1233.24 562.058 1240.73 566.801 1246.98 573.357C1256.94 583.8 1263.93 595.751 1265.81 610.25C1266.76 617.532 1264.96 624.094 1259.19 629.048C1255.39 632.312 1251.03 633.654 1246.04 631.901C1243.75 631.099 1241.62 630.034 1239.61 628.7C1237.26 627.13 1234.97 625.454 1232.56 623.97C1228.87 621.704 1224.88 621.078 1220.71 622.373C1217.78 623.286 1215.88 625.183 1215.51 628.409C1215.12 631.721 1214.71 635.025 1214.4 638.348C1213.9 643.767 1213.99 649.127 1215.16 654.431C1216.56 660.746 1219.57 666.109 1224.98 669.899C1229.31 672.932 1234.24 674.362 1239.43 674.771C1250.22 675.624 1260.63 673.729 1270.58 669.571C1277.53 666.667 1282.84 661.773 1286.49 655.152C1288.81 650.93 1290.53 646.446 1291.94 641.846C1293.91 635.462 1295.66 629.016 1297.91 622.715C1305.26 602.097 1315.76 583.243 1329.24 566.008C1335.59 557.889 1342.89 550.626 1349.75 542.966C1353.59 538.672 1357.14 534.143 1359.86 529.047C1361.46 526.039 1363.07 522.972 1363 519.377C1362.92 515.752 1361.23 513.999 1357.63 513.982C1352.65 513.959 1347.69 513.978 1342.72 514.463C1336.73 515.05 1330.84 516.025 1325.2 518.222C1316.45 521.628 1310.01 527.437 1306.64 536.308C1304.64 541.556 1304.39 546.879 1307 552.019C1308.89 555.731 1309.65 559.576 1308.96 563.668C1307.92 569.91 1304.91 575.027 1299.47 578.32C1289.41 584.416 1277.6 579.973 1271.86 573.39C1266.32 567.024 1265.17 559.531 1267.04 551.463C1268.1 546.873 1270.14 542.773 1273.25 539.208C1274.5 537.779 1275.48 536.25 1275.53 534.182C1275.64 530.199 1273.95 527.254 1270.74 525.072C1268.27 523.389 1265.43 522.749 1262.53 522.297C1258.02 521.592 1253.47 521.719 1247.9 521.702L1247.9 521.704ZM1292.39 548.992C1291.78 550.337 1290.74 552.77 1290 553.922C1288.44 556.375 1287.59 559.114 1286.05 561.581C1284.71 563.722 1284.78 566.753 1284.33 569.207C1284.06 570.662 1284.58 571.135 1286.04 570.746C1287.46 570.369 1288.69 569.589 1289.81 568.611C1293.97 564.977 1295 560.294 1294.24 555.103C1294.05 553.816 1293.48 550.278 1292.39 548.991L1292.39 548.992Z" fill="#007CFF"/>
<path d="M1322.44 854.033C1322.87 846.778 1323.34 839.525 1323.81 832.273C1324.03 828.858 1324.18 825.436 1324.53 822.034C1325.45 813.028 1326.41 804.022 1327.45 795.029C1328.14 789.161 1329.08 783.329 1331.06 777.723C1332.85 772.64 1335.38 767.997 1339.45 764.361C1341.43 762.593 1343.57 761.009 1345.63 759.331C1351.79 754.318 1353.15 747.791 1349.92 740.436C1348.9 738.123 1347.28 736.241 1345.66 734.354C1343.26 731.566 1341.25 728.42 1338.44 726.013C1333.03 721.399 1326.43 719.916 1319.62 719.338C1311.12 718.618 1302.68 719.487 1294.31 721.08C1283.77 723.085 1273.52 726.162 1263.25 729.219C1256.51 731.227 1249.86 733.497 1243.72 737.031C1236.12 741.4 1230.1 747.127 1227.42 755.768C1227.28 756.242 1227 756.675 1226.68 757.335C1226.14 754.607 1224.93 752.488 1223.32 750.567C1221.56 748.467 1219.77 746.389 1218.09 744.22C1215.23 740.513 1211.4 738.443 1206.96 737.295C1202.87 736.238 1198.68 735.923 1194.5 735.835C1189.96 735.739 1185.42 735.834 1180.87 736.044C1174.62 736.334 1168.39 736.611 1162.15 737.135C1153.62 737.853 1145.13 738.894 1136.71 740.433C1129.25 741.798 1122.07 744.045 1115.57 748.12C1112.57 750.002 1109.87 752.217 1107.8 755.134C1103.07 761.815 1103 768.846 1106.31 776.079C1108.44 780.72 1111.67 784.64 1114.75 788.65C1117.68 792.46 1120.61 796.282 1122.67 800.656C1125.67 807.055 1126.63 813.909 1126.8 820.883C1126.96 828.079 1126.39 835.256 1126 842.438C1125.63 849.271 1125.32 856.11 1124.96 862.946C1124.61 869.781 1124.3 876.618 1123.93 883.452C1123.57 890.202 1123.29 896.956 1122.9 903.706C1122.52 910.289 1121.93 916.836 1120.69 923.312C1118.96 932.334 1115.78 940.757 1110.4 948.299C1107.32 952.626 1104.12 956.884 1101.47 961.509C1098.82 966.14 1097.48 970.976 1097.95 976.091C1098.06 977.311 1098.28 978.547 1098.6 979.8C1098.85 980.734 1099.13 981.672 1099.55 982.539C1099.72 982.907 1099.92 983.265 1100.15 983.599C1101.24 985.141 1102.33 986.679 1103.46 988.193C1105.26 990.626 1107.16 992.989 1109.24 995.175C1110.29 996.272 1111.38 997.33 1112.53 998.325C1114.31 999.863 1116.2 1001.18 1118.16 1002.3C1123.91 1005.58 1130.35 1007.2 1137.1 1007.72C1138.24 1007.81 1139.39 1007.88 1140.54 1007.94C1148.47 1008.33 1156.41 1007.94 1164.29 1006.73C1172.27 1005.49 1180.2 1003.95 1188.07 1002.17C1191.8 1001.33 1195.52 1000.43 1199.23 999.487C1204.62 998.11 1209.31 995.665 1213.23 992.078C1215 990.45 1216.63 988.61 1218.07 986.488C1218.2 986.3 1218.31 986.106 1218.44 985.917C1219.88 983.729 1221.16 981.466 1222.3 979.139C1222.94 977.85 1223.53 976.543 1224.08 975.215C1224.93 973.144 1225.7 971.029 1226.37 968.874C1226.39 968.794 1226.42 968.715 1226.45 968.634C1227.89 963.962 1228.81 959.172 1229.21 954.186C1229.87 954.64 1229.89 955.149 1229.97 955.657C1230.75 960.511 1232.7 964.815 1235.92 968.556C1235.97 968.606 1236.01 968.659 1236.05 968.71C1237.74 970.685 1239.36 972.721 1241.02 974.73C1241.23 974.985 1241.43 975.244 1241.65 975.498C1242.42 976.428 1243.2 977.348 1244.07 978.191C1244.31 978.423 1244.55 978.65 1244.81 978.869C1247.35 981.046 1250.13 982.782 1253.07 984.204C1255.65 985.455 1258.35 986.464 1261.14 987.284C1262.89 987.8 1264.66 988.251 1266.42 988.671C1275.72 990.884 1285.18 991.8 1294.83 991.513C1303.91 991.243 1312.77 989.94 1321.41 987.464C1323.3 986.922 1325.18 986.344 1327.05 985.686C1328.39 985.214 1329.7 984.691 1330.99 984.119C1334.14 982.709 1337.09 980.945 1339.67 978.636C1340.35 978.031 1340.99 977.38 1341.62 976.694C1341.95 976.335 1342.28 975.987 1342.59 975.604C1343.74 974.203 1344.62 972.699 1345.28 971.143C1347.78 965.271 1346.85 958.605 1342.5 953.419C1341.02 951.648 1339.44 949.943 1338.07 948.084C1335.8 944.987 1333.05 942.794 1329.1 942.221C1327.26 941.953 1325.75 941.006 1325.39 938.85C1325.18 937.592 1324.68 936.382 1324.37 935.137C1322.72 928.436 1322.95 921.548 1322.46 914.738C1322.09 909.529 1322.08 904.291 1321.98 899.074C1321.76 886.206 1321.78 873.331 1322.25 860.463C1322.33 858.32 1322.31 856.174 1322.44 854.035L1322.44 854.033ZM1223.84 769.249C1224.5 768.078 1225.11 766.872 1225.74 765.681C1225.91 765.718 1226.08 765.755 1226.25 765.792C1226.42 770.566 1228.37 774.56 1231.64 777.894C1239.95 786.366 1236.26 800.086 1229.08 805.795C1223.94 809.88 1218.29 810.331 1212.17 807.95C1208.53 806.534 1207.13 803.936 1206.8 800.36C1206.56 797.651 1207.09 795.077 1208.08 792.58C1209.89 787.984 1212.78 784.059 1215.79 780.201C1218.58 776.626 1221.58 773.208 1223.84 769.247L1223.84 769.249ZM1235.27 888.297C1234.43 895.934 1233.59 903.573 1232.77 911.213C1232.21 916.392 1231.67 921.574 1231.15 926.758C1230.73 931.007 1230.34 935.261 1229.93 939.513C1229.88 940.035 1229.68 940.487 1229.19 941.145C1228.56 932.766 1226.21 925.028 1222.84 917.564C1220.13 911.556 1217.05 905.715 1214.72 899.535C1212.74 894.285 1211.36 888.902 1211.58 883.259C1211.86 876.209 1213.86 869.85 1219.12 864.735C1223.86 860.13 1231.47 860.071 1236.45 862.132C1237.52 862.575 1237.83 863.347 1237.75 864.351C1237.57 866.821 1237.37 869.292 1237.1 871.754C1236.51 877.271 1235.88 882.783 1235.27 888.298V888.297ZM1303.41 894.313C1303.8 902.158 1304.07 910.032 1305.28 917.82C1306.44 925.236 1308.25 932.45 1312.33 938.874C1315.15 943.324 1318.77 947.124 1323.95 948.541C1329.59 950.083 1330.85 956.736 1327.74 961.026C1326.03 963.389 1323.76 965.014 1321.13 966.17C1318.1 967.498 1315 968.573 1311.86 969.477C1307.69 970.674 1303.44 971.562 1299.14 972.255C1292.71 973.293 1286.22 973.924 1279.7 973.711C1271.47 973.44 1263.28 972.763 1255.62 969.251C1255.03 968.98 1254.45 968.692 1253.87 968.399C1251.08 966.975 1248.47 965.266 1246.22 963.047C1241.88 958.762 1240.48 953.628 1241.47 947.581C1243.12 937.546 1244.49 927.467 1245.96 917.403C1247.13 909.368 1248.45 901.35 1249.41 893.29C1250.56 883.567 1251.08 873.805 1248.59 864.178C1246.4 855.692 1242 848.602 1234.83 843.391C1223.96 835.491 1211.12 836.847 1201.67 845.656C1192.94 853.799 1190.26 863.992 1191.73 875.598C1192.43 881.04 1194.17 886.103 1196.63 890.941C1200.86 899.282 1204.75 907.765 1207.59 916.697C1209.81 923.665 1211.45 930.767 1211.52 938.09C1211.63 950.878 1207.65 961.345 1199.71 969.474C1197.28 971.953 1194.49 974.221 1191.33 976.261C1190.27 976.945 1189.18 977.611 1188.03 978.245C1185.88 979.44 1183.67 980.482 1181.43 981.409C1174.26 984.377 1166.68 986.093 1158.96 987.268C1151.09 988.466 1143.16 989.065 1135.2 989.479C1130.71 989.712 1126.3 989.764 1121.95 988.722C1120.18 988.298 1118.6 987.64 1117.22 986.752C1115.25 985.485 1113.69 983.743 1112.6 981.471C1112.34 980.918 1112.1 980.335 1111.89 979.72C1111.32 978.038 1111.23 976.437 1111.58 974.927C1111.85 973.713 1112.4 972.554 1113.25 971.466C1124.87 956.595 1131.31 939.489 1135.09 921.228C1136.98 912.087 1138.18 902.853 1138.89 893.54C1139.34 887.652 1139.62 881.758 1139.94 875.864C1140.35 868.407 1140.17 860.945 1140.47 853.496C1140.72 846.982 1140.51 840.484 1140.16 834.007C1139.49 821.49 1137.7 809.158 1132.65 797.501C1129.21 789.569 1124.38 782.719 1117.73 777.164C1112.79 773.033 1112.61 767.135 1117.23 762.518C1119.61 760.142 1122.55 758.804 1125.69 757.816C1130.35 756.347 1135.14 755.372 1139.91 754.356C1151.89 751.806 1163.94 749.777 1176.13 748.474C1181.83 747.865 1187.52 747.301 1193.24 746.916C1196.15 746.72 1199.05 746.515 1201.96 746.446C1203.97 746.399 1205.84 746.907 1207.67 747.737C1209.36 748.5 1210.1 749.884 1210.45 751.511C1210.85 753.448 1210.23 754.951 1208.44 756.091C1203.29 759.369 1199.17 763.707 1196.01 768.915C1190.97 777.245 1188.63 786.199 1190.25 795.952C1191.92 805.941 1197.43 813.274 1206.24 818.039C1213.12 821.763 1220.5 823.415 1228.34 821.884C1239.23 819.757 1245.77 812.81 1248.97 802.557C1250.84 796.549 1250.85 790.416 1248.79 784.347C1247.46 780.414 1245.31 777.005 1242.07 774.49C1237.18 770.691 1236.42 765.813 1237.65 760.216C1238.81 754.954 1242.07 751.217 1246.34 748.229C1249.68 745.899 1253.38 744.274 1257.21 743.022C1268.54 739.329 1279.94 735.916 1291.61 733.448C1297.39 732.223 1303.22 731.385 1309.12 730.908C1317.4 730.239 1325.54 730.766 1333.6 732.674C1333.94 732.753 1334.29 732.793 1334.45 733.288C1334.1 734.26 1333.05 734.658 1332.33 735.318C1323.98 742.931 1318.18 752.23 1314.09 762.672C1310.58 771.641 1308.37 780.954 1306.87 790.447C1305.86 796.868 1305.16 803.322 1304.69 809.807C1304.29 815.183 1303.99 820.561 1303.65 825.938C1302.78 839.639 1302.65 853.348 1302.65 867.067C1302.65 876.159 1302.96 885.246 1303.41 894.318L1303.41 894.313Z" fill="#007CFF"/>
<path d="M880.783 908.908C877.174 902.832 872.536 897.504 867.648 892.47C861.922 886.573 854.619 884.035 846.447 884.274C842.152 884.4 837.985 885.419 833.965 887.01C830.659 888.319 827.548 890.027 824.243 891.841C824.333 891.318 824.332 891.064 824.42 890.847C827.106 884.268 827.779 877.448 826.866 870.439C826.109 864.63 824.179 859.298 820.425 854.715C818.144 851.93 815.902 849.113 813.566 846.376C808.776 840.764 802.682 838.308 795.308 838.81C793.261 838.949 791.324 839.598 788.91 839.902C792.561 834.663 796.91 831.004 802.862 829.557C809.291 827.994 815.244 829.308 820.851 832.692C822.336 833.589 823.342 834.669 823.787 836.374C824.468 838.987 825.856 841.244 827.595 843.299C829.59 845.654 831.571 848.021 833.528 850.406C834.187 851.209 834.924 851.902 835.733 852.551C843.57 858.847 858.464 858.954 867.417 848.78C871.571 844.057 874.252 838.557 875.878 832.501C878.409 823.074 878.566 813.523 877.174 803.952C876.2 797.251 873.778 791.032 869.531 785.656C867.3 782.833 864.915 780.131 862.651 777.333C859.52 773.463 855.646 770.57 851.239 768.308C843.624 764.398 835.374 763.026 827.002 762.066C820.953 761.372 814.864 761.437 808.796 761.11C803.067 760.801 797.317 760.863 791.576 760.583C785.929 760.308 780.269 760.343 774.612 760.07C768.966 759.799 763.305 759.821 757.649 759.555C751.915 759.286 746.168 759.279 740.427 759.038C733.566 758.748 726.688 758.839 719.816 758.82C715.569 758.809 711.478 759.671 707.551 761.296C700.51 764.207 696.381 771.87 699.468 779.959C700.326 782.21 701.491 784.306 702.8 786.331C705.411 790.37 708.478 794.075 711.317 797.946C716.248 804.669 718.784 811.963 718.167 820.467C717.721 826.619 716.922 832.722 716.28 838.842C715.158 849.546 713.683 860.214 712.412 870.904C711.442 879.053 710.587 887.215 709.631 895.366C708.516 904.871 707.344 914.369 706.2 923.87C705.229 931.932 704.449 940.017 703.056 948.022C701.772 955.4 699.814 962.563 696.272 969.227C693.836 973.809 690.539 977.755 687.259 981.72C684.469 985.094 681.698 988.484 679.845 992.495C678.574 995.248 677.904 997.936 677.852 1000.55C677.792 1003.39 678.466 1006.14 679.916 1008.81C680.5 1009.88 681.202 1010.94 682.042 1011.99C683.867 1014.26 685.797 1016.44 687.571 1018.75C689.144 1020.8 690.869 1022.52 692.728 1023.96C697.893 1027.97 704.103 1029.76 711.08 1029.93C718.412 1030.12 725.571 1028.69 732.709 1027.32C748.311 1024.32 764.053 1022.86 779.924 1022.75C784.633 1022.72 789.345 1022.8 794.054 1023.2C798.745 1023.59 803.46 1023.75 808.169 1023.88C811.75 1023.97 815.331 1024.01 818.9 1023.87C822.051 1023.73 825.192 1023.44 828.317 1022.91C828.945 1022.8 829.572 1022.7 830.199 1022.57C839.98 1020.56 848.289 1016.23 855.406 1010C858.26 1007.5 860.927 1004.71 863.414 1001.62C864.251 1000.59 865.05 999.525 865.833 998.456C867.672 995.94 869.369 993.347 870.915 990.676C874.576 984.359 877.454 977.634 879.72 970.604C884.341 956.267 887.55 941.682 886.167 926.456C885.603 920.24 883.984 914.3 880.783 908.909V908.908ZM695.727 1006.79C694.065 1005.77 693.979 1005.42 694.959 1003.76C695.679 1002.53 696.382 1001.3 697.074 1000.06C698.85 996.884 700.544 993.664 702.171 990.405C709.059 976.62 714.144 962.18 718.076 947.306C721.953 932.637 724.563 917.742 726.355 902.685C727.183 895.722 727.886 888.755 728.421 881.764C728.826 876.476 729.158 871.186 729.458 865.89C729.957 857.08 730.205 848.265 730.52 839.449C730.829 830.788 730.982 822.131 730.957 813.469C730.938 806.655 728.726 800.754 723.758 795.9C721.003 793.209 718.134 790.615 715.657 787.639C714.447 786.184 713.317 784.7 712.433 783.009C709.713 777.801 712.281 771.771 717.609 769.657C720.604 768.469 723.7 767.948 726.919 768.084C728.12 768.136 729.325 768.093 730.528 768.093C730.531 768.051 730.534 768.009 730.536 767.967C736.429 768.35 742.318 768.857 748.218 769.074C752.93 769.248 757.629 769.584 762.336 769.814C768.064 770.094 773.79 770.42 779.518 770.719C783.708 770.937 787.901 771.125 792.091 771.36C797.217 771.648 802.342 771.979 807.467 772.273C811.4 772.497 815.344 772.588 819.266 772.925C825.315 773.446 831.409 773.343 837.428 774.282C847.481 775.849 853.465 781.862 855.198 791.889C856.599 799.996 855.306 807.94 853.382 815.794C852.284 820.279 851.266 824.841 848.803 828.842C846.893 831.947 844.255 833.945 840.337 833.569C837.928 833.338 836.232 832.241 835.179 829.959C829.581 817.831 820.184 810.391 807.109 807.716C795.718 805.384 785.713 808.559 777.055 816.019C770.022 822.077 765.462 829.721 763.623 838.886C762.685 843.561 762.76 848.209 763.873 852.875C765.705 860.551 771.931 862.976 777.665 862.494C783.327 862.018 787.801 859.04 791.929 855.436C793.479 854.084 794.999 852.687 796.418 851.2C797.234 850.345 797.873 850.335 798.838 850.921C803.843 853.955 806.476 858.533 807.067 864.185C808.449 877.418 794.604 885.354 784.365 881.651C778.02 879.357 772.557 880.897 767.46 884.613C762.861 887.965 760.249 892.827 758.232 897.992C756.078 903.509 754.51 909.223 753.736 915.091C752.939 921.141 752.935 927.169 755.04 933.074C758.021 941.436 765.652 945.627 772.703 945.637C779.223 945.647 785.019 943.728 790.412 940.291C794.26 937.84 797.754 934.926 800.983 931.714C810.851 921.896 820.674 912.034 830.531 902.204C833.092 899.651 835.9 897.428 839.163 895.786C844.709 892.994 850.098 893.397 855.319 896.523C861.092 899.977 864.402 905.23 865.935 911.673C867.22 917.081 867.105 922.575 866.296 927.993C864.577 939.515 862.32 950.94 858.803 962.072C856.076 970.706 852.474 978.925 846.929 986.176C845.137 988.521 843.198 990.616 841.115 992.469C836.612 996.477 831.435 999.339 825.634 1001.14C823.383 1001.83 821.043 1002.38 818.604 1002.75C811.308 1003.88 803.94 1003.97 796.59 1004.37C791.291 1004.66 785.978 1004.59 780.69 1005.15C778.648 1005.36 776.575 1005.29 774.517 1005.36C769.463 1005.53 764.404 1005.62 759.357 1005.9C751.316 1006.35 743.268 1006.6 735.225 1006.96C727.438 1007.31 719.653 1007.66 711.865 1007.99C708.016 1008.14 704.18 1008.52 700.322 1008.28C700.152 1008.27 699.99 1008.24 699.823 1008.22C698.356 1008.05 696.988 1007.57 695.724 1006.79L695.727 1006.79ZM805.6 906.887C805.397 907.248 805.32 907.502 805.155 907.664C798.66 914.022 792.236 920.459 784.781 925.734C782.255 927.52 779.597 929.089 776.82 930.452C776.073 930.819 775.355 931.392 774.278 931.074C774.302 924.795 774.795 918.579 778.291 913.083C781.151 908.587 785.104 905.44 790.408 904.172C792.992 903.554 795.537 903.607 797.949 904.702C800.366 905.8 802.825 906.663 805.601 906.888L805.6 906.887Z" fill="#007CFF"/>
<path d="M1101.42 833.711C1100.42 825.287 1098.37 817.057 1096.43 808.814C1094.45 800.377 1092.08 792.043 1088.19 784.266C1082.79 773.48 1075.2 764.291 1066.25 756.336C1059.03 749.917 1050.38 746.735 1040.54 746.91C1033.61 747.033 1026.95 748.514 1020.33 750.292C1009.98 753.072 999.558 755.483 988.996 757.287C975.481 759.595 961.85 760.828 948.167 761.33C940.199 761.622 932.21 761.502 924.241 760.944C922.959 760.855 921.653 760.961 920.391 760.765C916.583 760.174 912.83 760.483 909.24 761.73C897.917 765.661 890.802 773.865 886.581 784.764C882.709 794.761 882.768 805.215 883.719 815.658C884.447 823.655 885.717 831.6 887.176 839.505C888.256 845.349 889.695 851.125 892.976 856.14C896.594 861.668 900.772 866.826 905.673 871.274C909.172 874.45 913.435 876.325 918.262 876.495C924.872 876.728 929.969 873.679 934.138 868.85C937.477 864.98 939.845 860.505 941.664 855.761C943.196 851.763 944.518 847.685 945.962 843.652C947.849 838.379 950.181 833.338 953.848 829.027C954.996 827.677 956.225 826.394 958.015 825.419C958.798 830.345 958.996 834.974 959.15 839.575C959.324 844.789 959.254 850.019 958.971 855.256C958.533 863.386 957.668 871.44 956.312 879.458C953.178 897.985 947.527 915.723 939.465 932.674C931.054 950.357 920.411 966.576 907.136 981.026C905.028 983.319 903.321 985.817 902.7 988.886C902.61 989.334 902.541 989.793 902.499 990.266C902.314 992.344 902.421 994.321 902.777 996.215C903.425 999.644 904.912 1002.79 907.068 1005.72C907.364 1006.12 907.669 1006.52 907.99 1006.91C910.103 1009.51 912.22 1012.1 914.388 1014.65C914.551 1014.84 914.709 1015.04 914.873 1015.23C918.124 1019.03 922.042 1021.87 926.923 1023.2C933.209 1024.92 939.575 1024.96 946.001 1024.11C952.896 1023.21 959.624 1021.52 966.377 1019.96C981.623 1016.43 997.09 1014.85 1012.71 1014.67C1016.39 1014.63 1020.08 1014.84 1023.76 1015.02C1023.99 1015.03 1024.22 1015.05 1024.46 1015.06C1027.73 1015.23 1031 1015.44 1034.26 1015.74C1041.36 1016.38 1048.47 1016.6 1055.54 1015.51C1060.43 1014.76 1065.04 1013.17 1068.95 1010.01C1069.47 1009.58 1069.96 1009.15 1070.43 1008.7C1073.44 1005.87 1075.39 1002.6 1076.26 998.9C1076.83 996.453 1076.94 993.815 1076.56 990.976C1076.55 990.962 1076.55 990.949 1076.55 990.935C1076.25 988.691 1075.63 986.593 1074.81 984.597C1073.85 982.296 1072.59 980.137 1071.11 978.082C1070.8 977.657 1070.49 977.235 1070.17 976.819C1067.91 973.913 1065.54 971.088 1063.16 968.28C1057.83 961.998 1051.25 957.807 1043.08 956.177C1039.9 955.543 1036.72 954.851 1033.69 953.538C1032.2 952.888 1031.45 951.948 1030.95 950.457C1028.97 944.547 1028.59 938.382 1028.03 932.264C1027.47 926.219 1027.02 920.159 1026.93 914.08C1026.79 903.619 1026.6 893.167 1027.24 882.703C1027.65 875.958 1028.14 869.226 1028.87 862.513C1029.68 855.031 1030.78 847.587 1032.11 840.178C1032.37 838.707 1033.08 837.448 1034.09 836.35C1036.61 833.62 1039.95 832.653 1043.41 832.784C1047.79 832.949 1051.62 834.521 1053.49 839.014C1053.92 840.038 1054.57 840.966 1055.07 841.963C1058.95 849.743 1064.61 856.211 1070.7 862.246C1074.54 866.046 1079.52 867.193 1084.79 865.619C1092.85 863.214 1097.77 857.553 1100.3 849.75C1101.98 844.537 1102.07 839.112 1101.42 833.717L1101.42 833.711ZM1082.59 834.373C1081.15 840.175 1076.1 843.445 1070.52 843.002C1067.94 842.797 1066.01 841.78 1064.81 839.311C1062 833.521 1059.06 827.796 1055.15 822.639C1050.86 816.972 1045.63 812.548 1038.69 810.466C1030.88 808.122 1024.01 809.672 1018.1 815.418C1012.71 820.66 1010.12 827.297 1008.38 834.374C1006.77 840.959 1006.22 847.699 1005.64 854.43C1005.04 861.341 1004.76 868.265 1004.51 875.198C1004.36 879.397 1004.1 883.607 1004.32 887.784C1004.72 895.468 1004.8 903.164 1005.56 910.841C1006.28 918.077 1006.87 925.321 1008.36 932.449C1009.68 938.763 1011.6 944.858 1014.86 950.502C1019.07 957.783 1025.07 962.594 1033.28 964.654C1038.02 965.843 1042.82 966.767 1047.48 968.267C1048.87 968.715 1050.19 969.314 1051.5 969.956C1055.57 971.949 1057.72 975.457 1057.93 979.198C1058.06 981.582 1057.38 984.055 1055.91 986.295C1055.55 986.844 1055.16 987.384 1054.7 987.901C1051.46 991.547 1047.31 993.323 1042.57 994.028C1038.03 994.703 1033.5 994.313 1028.99 993.949C1017.93 993.059 1006.85 992.997 995.803 993.575C974.776 994.676 954.125 998.109 933.932 1004.04C932.527 1004.45 931.124 1004.87 929.723 1005.31C927.677 1005.95 925.641 1006.61 923.601 1007.27C921.589 1007.91 920.941 1007.76 919.62 1006.1C919.317 1005.72 919.049 1005.33 918.805 1004.94C917.219 1002.37 916.847 999.493 917.28 996.417C917.32 996.136 917.377 995.861 917.432 995.586C917.978 992.843 919.248 990.438 920.927 988.229C921.016 988.111 921.102 987.991 921.195 987.873C923.32 985.171 925.794 982.805 928.288 980.437C934.91 974.147 940.578 967.061 945.459 959.336C953.781 946.162 959.333 931.821 963.362 916.848C966.791 904.103 969.072 891.135 970.758 878.052C971.763 870.251 972.622 862.438 973.356 854.606C974.026 847.451 974.941 840.314 974.854 833.114C974.776 826.799 973.823 820.644 970.688 815.027C967.282 808.925 962.571 804.453 955.439 803.073C950.92 802.198 946.76 803.319 942.825 805.424C936.408 808.86 932.01 814.282 928.361 820.405C925.98 824.4 924.352 828.74 922.614 833.03C920.492 838.272 918.47 843.557 915.716 848.522C913.875 851.841 911.643 854.867 909.094 857.666C908.641 858.163 908.206 858.732 907.363 858.879C906.153 857.209 905.763 855.156 905.114 853.242C902.112 844.38 900.047 835.3 898.881 826.008C898.25 820.988 897.998 815.96 897.81 810.906C897.571 804.473 897.742 798.093 898.949 791.773C900.593 783.158 905.327 776.938 913.501 773.479C916.517 772.202 919.663 771.374 922.876 770.806C928.792 769.759 934.769 769.439 940.765 769.286C950.553 769.037 960.321 769.8 970.104 769.886C973.088 769.913 976.093 770.191 979.089 770.143C993.081 769.919 1006.66 767.595 1019.75 762.451C1025.64 760.134 1031.68 758.155 1037.97 757.112C1042.14 756.421 1046.31 756.242 1050.45 757.09C1057.19 758.466 1062.21 762.413 1066.2 767.853C1070.59 773.853 1073 780.731 1074.72 787.832C1077.41 798.893 1079.9 810.003 1082.35 821.121C1083.32 825.489 1083.69 829.931 1082.59 834.373Z" fill="#007CFF"/>
<path d="M497.276 860.319C500.464 854.98 502.425 849.12 504.355 843.259C508.587 830.415 511.561 817.389 510.292 803.697C509.669 796.969 507.985 790.579 505.233 784.42C502.531 778.373 498.236 773.466 494.081 768.452C492.442 766.472 490.842 764.432 489 762.65C483.051 756.893 475.899 753.32 467.822 751.668C459.399 749.944 450.896 749.489 442.289 749.983C434.587 750.426 426.857 750.418 419.138 750.539C417.177 750.569 415.23 750.146 413.248 750.2C408.186 750.342 403.14 749.947 398.096 749.599C391.609 749.151 385.146 748.473 378.694 747.66C370.535 746.631 362.446 745.215 354.382 743.619C345.812 741.923 337.422 739.402 328.774 738.066C323.41 737.237 318.047 736.944 312.683 738.04C304.219 739.77 297.613 744.392 292.416 751.16C285.41 760.286 282.593 770.829 282.189 782.119C281.768 793.88 282.815 805.566 284.364 817.208C285.513 825.856 288.192 833.902 294.207 840.515C297.085 843.679 299.441 847.298 302.719 850.117C311.147 857.367 321.616 857.769 330.602 851.233C334.89 848.114 338.304 844.179 341.457 839.993C344.967 835.336 348.277 830.523 351.876 825.938C354.452 822.654 357.712 820.182 362.014 819.394C362.353 820.426 362.632 821.394 362.62 822.443C362.472 836.161 362.945 849.883 361.801 863.592C361.032 872.812 359.935 881.96 358.01 891.01C354.265 908.608 347.272 924.739 336.642 939.32C335.993 940.211 335.341 941.101 334.689 941.992C332.844 944.514 331.005 947.042 329.201 949.594C325.701 954.543 322.345 959.593 319.427 964.932C318.54 966.555 317.714 968.195 316.949 969.85C315.11 973.828 313.657 977.905 312.714 982.118C311.776 986.312 311.342 990.638 311.561 995.133C311.951 1003.14 314.194 1010.45 319.503 1016.65C321.23 1018.67 322.95 1020.7 324.552 1022.81C325.923 1024.62 327.435 1026.2 329.065 1027.6C333.184 1031.11 338.083 1033.37 343.558 1034.74C350.127 1036.38 356.836 1036.61 363.541 1036.81C364.107 1036.82 364.673 1036.84 365.24 1036.85C369.526 1036.98 373.819 1036.78 378.109 1036.68C391.843 1036.37 405.586 1037.01 419.321 1036.31C426.885 1035.93 434.312 1034.92 441.501 1032.43C446.343 1030.75 450.752 1028.32 454.48 1024.89C454.875 1024.53 455.269 1024.17 455.649 1023.78C458.716 1020.66 460.962 1017.14 462.483 1013.3C463.815 1009.94 464.592 1006.34 464.853 1002.54C465.128 998.516 464.894 994.552 464.236 990.644C463.722 987.578 462.952 984.543 461.925 981.547C461.809 981.208 461.679 980.876 461.557 980.541C459.196 973.995 455.897 967.909 452.48 961.875C448.257 954.418 443.704 947.137 440.451 939.164C437.974 933.092 436.336 926.835 435.996 920.259C435.735 915.201 435.899 910.167 436.305 905.113C436.88 897.948 437.672 890.81 438.638 883.698C440.249 871.832 442.218 860.02 444.767 848.314C445.549 844.721 446.167 841.087 447.287 837.573C447.771 836.053 448.535 834.751 450.04 834.023C452.688 832.738 455.302 834.156 455.572 837.041C455.715 838.571 455.899 840.104 455.928 841.638C455.987 844.724 456.176 847.796 456.601 850.852C457.069 854.23 458.244 857.325 460.423 859.99C462.483 862.512 464.517 865.055 466.637 867.524C467.524 868.557 468.486 869.545 469.637 870.332C473.876 873.226 478.485 873.307 483.202 872.019C489.637 870.262 493.961 865.863 497.271 860.319H497.276ZM481.152 843.83C479.454 847.637 476.197 848.888 472.282 847.359C468.553 845.902 466.794 842.875 465.817 839.253C464.809 835.514 464.731 831.646 464.382 827.821C464 823.611 463.344 819.478 461.112 815.792C457.781 810.292 452.347 808.119 446.093 809.757C439.361 811.519 435.067 816.009 432.231 822.156C430.022 826.945 428.95 832.064 427.795 837.153C425.388 847.748 422.971 858.348 421.175 869.067C420.131 875.304 419.32 881.579 418.777 887.892C418.344 892.928 417.974 897.978 418.027 903.006C418.16 915.552 419.679 927.95 423.709 939.899C427.5 951.137 432.942 961.475 441.167 970.185C442.048 971.119 442.87 972.11 443.759 973.037C444.98 974.311 445.909 975.716 446.578 977.234C447.266 978.793 447.68 980.471 447.841 982.254C447.993 983.923 447.958 985.546 447.786 987.136C447.336 991.299 445.848 995.201 443.577 998.903C441.161 1002.84 438.04 1005.85 434.399 1008.18C431.932 1009.75 429.228 1011.02 426.333 1012.04C420.588 1014.06 414.672 1015.09 408.663 1015.47C407.24 1015.56 405.813 1015.63 404.38 1015.65C396.562 1015.76 388.742 1015.68 379.51 1015.68C371.819 1015.38 362.706 1015.73 353.61 1015.42C348.463 1015.25 343.318 1015.34 338.179 1015.13C333.391 1014.94 329.694 1012.55 326.914 1008.79C321.95 1002.07 320.768 994.703 322.803 986.851C322.931 986.359 323.068 985.866 323.221 985.369C324.352 981.696 325.918 978.25 327.752 974.95C329.568 971.681 331.646 968.555 333.828 965.49C336.368 961.921 338.845 958.313 341.228 954.648C342.936 952.02 344.598 949.363 346.193 946.667C348.524 942.729 350.723 938.711 352.743 934.586C361.157 917.405 367.161 899.421 370.496 880.566C371.733 873.574 372.587 866.542 373.149 859.457C373.856 850.539 373.831 841.62 373.379 832.719C372.91 823.499 371.678 814.335 369.624 805.312C368.406 799.97 364.512 796.705 358.996 795.955C351.153 794.889 344.945 797.719 339.899 803.581C336.686 807.314 334.296 811.573 331.943 815.856C329.71 819.921 327.406 823.937 324.326 827.44C321.737 830.383 318.716 832.766 314.964 834.026C309.959 835.706 305.529 834.653 301.672 831.022C297.215 826.827 295.068 821.511 294.166 815.62C293.542 811.548 293.543 807.444 293.647 803.322C293.825 796.211 293.671 789.134 291.843 782.146C290.403 776.639 292.136 771.563 295.425 767.125C301.156 759.386 309.048 755.05 318.41 753.253C324.667 752.052 330.865 752.896 337.025 754.003C345.643 755.552 353.963 758.283 362.394 760.565C373.164 763.479 384.089 764.524 395.221 764.036C402.494 763.717 409.728 762.99 416.975 762.395C422.351 761.955 427.73 761.651 433.112 761.324C444.217 760.648 454.985 762.114 465.433 765.773C472.908 768.392 479.543 772.436 484.663 778.629C489.63 784.636 492.182 791.582 492.751 799.347C493.529 809.948 490.629 819.832 487.106 829.607C485.362 834.446 483.246 839.137 481.152 843.833V843.83Z" fill="#007CFF"/>
<path d="M687.156 922.668C686.495 915.722 684.967 909.146 680.296 903.663C678.129 901.118 676.07 898.48 673.891 895.947C671.842 893.568 669.34 891.825 666.339 890.779C661.321 889.031 656.361 889.398 651.478 891.179C645.635 893.309 640.84 896.981 636.701 901.577C635.923 902.441 635.213 903.45 633.98 903.952C633.77 902.779 634.333 901.855 634.596 900.897C636.26 894.833 637.25 888.683 637.114 882.38C636.955 874.988 635.137 868.152 630.281 862.355C628.245 859.923 626.242 857.466 624.185 855.053C623.072 853.749 621.86 852.554 620.432 851.554C613.953 847.016 601.61 847.444 595.184 854.941C595.184 853.082 595.07 851.214 595.205 849.364C595.743 841.935 598.573 835.568 604.451 830.842C608.199 827.828 612.482 826.508 617.412 827.304C622.703 828.157 627.034 830.766 631.087 834.027C635.332 837.443 638.559 841.806 642.091 845.884C645.523 849.847 649.044 853.706 653.49 856.597C658.008 859.536 662.965 860.604 668.238 859.806C674.725 858.825 679.17 855.521 680.911 848.784C682.801 841.468 684.372 834.109 684.86 826.583C685.393 818.365 685.232 810.146 683.963 801.969C683.076 796.253 681.31 790.999 677.184 786.733C675.998 785.507 674.938 784.141 673.943 782.751C671.05 778.706 667.085 776.502 662.306 775.333C651.736 772.748 641.113 770.437 630.411 768.466C616.434 765.89 602.378 763.874 588.236 762.492C580.491 761.735 572.734 761.055 564.967 760.577C560.087 760.276 555.181 760.376 550.285 760.366C544.929 760.354 539.713 761.214 534.669 763.061C527.174 765.807 521.981 770.816 519.765 778.558C518.069 784.481 518.603 790.091 522.911 794.938C524.506 796.732 526.082 798.553 527.534 800.462C528.795 802.121 530.195 803.592 531.934 804.738C533.184 805.564 534.05 806.677 534.722 808.028C536.925 812.447 538.286 817.128 538.956 821.984C540.242 831.297 540.005 840.655 538.88 849.941C537.081 864.793 535.065 879.623 532.399 894.353C530.018 907.51 527.051 920.529 522.9 933.245C517.356 950.231 509.601 966.113 499.013 980.585C497.539 982.598 496.168 984.679 494.941 986.839C493.364 989.62 492.052 992.545 491.13 995.661C491.043 995.954 490.945 996.241 490.865 996.537C489.412 1001.96 490.215 1006.86 494.036 1011.15C495.972 1013.33 497.866 1015.55 499.638 1017.86C499.857 1018.14 500.086 1018.41 500.322 1018.67C501.835 1020.34 503.679 1021.49 505.757 1022.39C508.555 1023.6 511.524 1024.19 514.506 1024.21C519.647 1024.25 524.786 1024.32 529.941 1024.01C535.15 1023.69 540.382 1023.71 545.609 1023.54C546.469 1023.51 547.331 1023.49 548.192 1023.45C553.584 1023.21 558.984 1023.24 564.385 1022.95C570.373 1022.64 576.381 1022.75 582.38 1022.42C587.941 1022.12 593.519 1022.11 599.087 1021.95C606.544 1021.73 614.004 1021.48 621.464 1021.33C627.37 1021.21 633.278 1021.07 639.151 1020.29C647.859 1019.15 655.216 1015.61 661.081 1009.18C661.495 1008.73 661.901 1008.26 662.3 1007.78C664.146 1005.54 665.755 1003.18 667.201 1000.74C669.796 996.346 671.837 991.662 673.629 986.842C678.083 974.859 681.46 962.553 684.244 950.089C686.259 941.074 688.048 932.018 687.158 922.667L687.156 922.668ZM633.616 904.396C633.67 904.396 633.74 904.374 633.77 904.399C633.9 904.508 633.868 904.627 633.678 904.717C633.661 904.726 633.565 904.617 633.544 904.551C633.531 904.508 633.591 904.443 633.616 904.395V904.396ZM621.043 918.205C621.503 918.056 621.907 917.57 622.585 917.972C622.047 919.165 620.987 919.916 620.096 920.772C615.592 925.095 610.597 928.628 604.449 930.261C600.048 931.429 595.837 930.894 591.691 929.095C590.193 928.445 589.707 927.439 589.66 925.919C589.53 921.721 591.705 918.782 594.816 916.383C596.903 914.773 599.285 913.823 601.977 913.991C603.541 914.088 605.081 914.54 606.218 915.633C610.603 919.852 615.645 919.963 621.043 918.205ZM673.159 912.726C672.911 917.346 671.853 921.873 670.906 926.392C667.204 944.035 662.109 961.261 655.18 977.923C653.1 982.925 650.638 987.694 647.183 991.939C643.522 996.439 638.942 999.24 633.554 1000.64C632.737 1000.85 631.904 1001.04 631.05 1001.19C625.887 1002.09 620.652 1002.14 615.433 1002.25C609.005 1002.39 602.579 1002.68 596.154 1002.86C591.273 1003 586.385 1003.1 581.511 1003.35C576.457 1003.62 571.398 1003.62 566.354 1003.88C562.2 1004.08 558.045 1004.13 553.897 1004.3C553.168 1004.33 552.439 1004.35 551.711 1004.39C546.829 1004.65 541.942 1004.66 537.067 1004.9C531.928 1005.15 526.778 1005.13 521.653 1005.44C517.876 1005.68 514.111 1005.72 510.346 1005.67C506.705 1005.62 503.201 1004.86 499.942 1002.35C501.289 1000.76 502.605 999.242 503.887 997.727C504.662 996.811 505.43 995.897 506.176 994.97C507.653 993.14 509.055 991.267 510.424 989.375C517.915 979.021 523.862 967.776 528.65 955.872C534.94 940.236 539.104 924.005 542.149 907.462C544.408 895.18 546.107 882.82 547.437 870.403C548.148 863.773 548.817 857.141 549.486 850.507C549.966 845.737 550.387 840.962 550.43 836.175C550.516 826.704 549.783 817.342 545.916 808.499C543.402 802.75 539.723 797.865 534.078 795.068C527.861 791.988 527.753 786.069 529.661 781.008C530.883 777.766 533.174 775.367 536.406 773.921C539.499 772.538 542.719 771.8 546.105 771.697C552.725 771.494 559.255 772.438 565.806 773.16C571.417 773.778 577.041 774.272 582.655 774.864C592.007 775.85 601.352 776.893 610.705 777.871C618.19 778.654 625.684 779.351 633.17 780.129C641.164 780.959 649.156 781.805 657.14 782.729C658.653 782.905 660.157 783.375 661.6 783.893C665.519 785.298 667.26 788.471 667.899 792.3C669.212 800.17 669.887 808.116 669.377 816.082C668.951 822.718 667.527 829.182 663.482 834.697C659.966 839.49 660.273 838.851 655.549 836.945C651.768 835.421 648.634 832.845 645.693 830.054C640.833 825.443 636.728 820.117 631.898 815.479C628.473 812.191 624.789 809.259 620.288 807.559C612.412 804.584 604.958 805.969 597.821 809.922C591.285 813.542 586.747 819.041 583.524 825.669C580.684 831.506 579.248 837.705 578.598 844.171C577.971 850.4 578.711 856.285 581.598 861.854C585.402 869.191 593.733 872.163 601.349 868.913C603.73 867.897 605.543 866.236 606.619 863.87C607.688 861.516 609.363 860.247 612.036 860.345C614.794 860.446 617.091 861.32 618.432 863.883C619.827 866.549 620.081 869.346 619.623 872.336C618.853 877.347 617.885 882.288 615.851 886.956C614.485 890.09 612.574 892.788 609.361 894.311C605.322 896.226 601.476 896.366 597.87 893.241C594.859 890.633 591.262 890.089 587.513 890.957C582.104 892.212 578.099 895.323 575.818 900.493C573.332 906.127 573.266 911.925 574.552 917.835C575.995 924.466 578.55 930.594 582.881 935.869C586.544 940.33 590.905 943.784 596.676 945.243C601.162 946.377 605.507 945.921 609.831 944.607C615.858 942.774 620.993 939.456 625.574 935.176C631.629 929.522 636.443 922.829 641.525 916.358C644.657 912.371 647.796 908.402 652.251 905.76C655.061 904.093 657.936 902.669 661.224 902.064C669.26 900.583 673.542 905.668 673.161 912.728L673.159 912.726Z" fill="#007CFF"/>
<path d="M934.033 561.82C935.905 556.793 938.439 552.246 941.949 548.319C947.844 541.725 955.094 537.124 963.401 534.137C971.451 531.242 979.797 530.019 988.29 529.39C993.259 529.021 998.236 529.162 1003.19 528.844C1007.14 528.59 1011.05 528.596 1014.97 528.914C1021.89 529.474 1028.07 531.423 1032.28 537.513C1033.83 539.759 1035.75 541.748 1037.49 543.87C1040 546.944 1040.97 550.5 1040.7 554.422C1040.53 556.755 1039.54 558.781 1037.86 560.319C1032.13 565.599 1026.29 570.765 1020.51 575.999C1015.49 580.545 1010.5 585.132 1005.49 589.684C998.381 596.133 991.25 602.555 984.147 609.009C977.993 614.602 971.848 620.206 965.742 625.852C965.02 626.519 963.999 626.931 963.51 628.023C967.922 630.315 972.072 632.816 975.799 636.012C980.661 640.18 984.348 645.359 988.455 650.182C992.444 654.866 995.505 660.085 997.639 665.85C999.253 670.209 1000.31 674.689 1000.49 679.353C1000.51 679.866 1000.67 680.382 1000.63 680.887C1000.54 682.125 1001.23 682.519 1002.31 682.681C1003.49 682.858 1004.66 683.049 1005.88 683.055C1008.88 683.071 1011.88 682.92 1014.89 683.191C1018.75 683.539 1021.95 685.024 1024.36 688.169C1026.13 690.479 1027.99 692.726 1029.92 694.907C1035.34 701.043 1035.12 710.222 1030.3 716.742C1026.53 721.836 1021.41 724.996 1015.67 727.258C1010.63 729.245 1005.39 730.39 999.927 730.666C980.613 731.641 964.595 724.548 951.388 710.81C947.362 706.621 943.762 702 940.297 697.312C935.194 690.411 932.413 682.555 930.93 674.176C930.242 670.289 929.106 666.52 927.848 662.781C927.425 661.52 926.725 660.812 925.426 660.442C920.818 659.132 915.936 661.234 913.533 665.79C910.212 672.091 910.214 678.601 912.592 685.186C914.483 690.422 917.143 695.351 918.814 700.679C920.088 704.742 920.735 708.853 919.804 713.082C918.428 719.336 914.373 723.441 908.955 726.397C903.45 729.4 897.436 730.783 891.297 731.61C884.254 732.558 877.15 732.805 870.061 733.233C864.174 733.588 858.302 734.258 852.413 734.534C845.398 734.863 838.365 735.27 831.457 733.283C827.297 732.086 823.731 730.126 821.041 726.656C819.256 724.355 817.349 722.15 815.493 719.905C811.491 715.062 811.282 709.751 813.763 704.243C815.296 700.839 817.824 698.083 820.54 695.595C824.958 691.546 829.636 687.778 834.021 683.694C837.478 680.475 840.338 676.708 842.867 672.7C848.28 664.118 851.664 654.717 854.102 644.938C856.735 634.38 858.511 623.665 859.892 612.879C860.525 607.924 860.7 602.986 859.861 598.038C859.603 596.509 859.149 595.041 858.699 593.566C858.182 591.873 857.216 590.525 855.824 589.416C850.407 585.095 846.265 579.586 842.223 574.078C838.201 568.596 838.244 562.314 840.546 556.163C844.466 545.689 852.083 539.174 862.852 536.302C869.045 534.65 875.349 534.329 881.724 534.747C891.222 535.37 900.621 536.676 909.882 538.861C915.894 540.279 921.022 543.195 924.824 548.233C926.473 550.418 928.337 552.441 930.062 554.57C931.797 556.713 933.201 559.048 934.034 561.819L934.033 561.82ZM928.735 574.635C928.493 574.635 924.923 576.911 924.793 577.032C922.228 579.404 919.517 581.213 917.593 584.21C916.693 585.613 915.782 588.474 917.593 590.648C921.573 586.637 924.921 582.7 927.409 578.078C927.407 577.949 927.184 577.687 927.579 577.799C927.518 577.906 928.794 574.527 928.735 574.635ZM918.425 556.523C916.165 553.701 913.613 551.732 910.735 550.153C905.041 547.028 898.832 545.856 892.448 545.636C888.258 545.492 884.057 545.485 879.853 545.893C875.082 546.356 870.309 546.778 865.596 547.642C860.794 548.521 856.308 550.142 852.989 553.996C848.48 559.232 848.048 565.24 853.998 570.176C855.117 571.105 856.315 571.942 857.499 572.793C862.888 576.666 866.689 581.676 868.781 588.024C871.469 596.178 871.603 604.557 870.952 612.952C870.324 621.046 869.108 629.084 867.554 637.063C865.12 649.555 861.812 661.753 855.846 673.102C850.61 683.064 843.753 691.574 834.238 697.798C831.729 699.44 829.286 701.188 827.228 703.425C825.659 705.131 824.725 707.127 824.35 709.354C823.789 712.691 825.736 715.667 828.98 716.67C829.971 716.976 830.979 717.074 832.02 717.07C837.334 717.048 842.618 716.531 847.916 716.238C853.899 715.907 859.879 715.527 865.861 715.224C872.444 714.891 879.023 714.463 885.606 714.145C894.346 713.722 899.395 709.044 901.04 701.331C901.635 698.537 901.732 695.729 901.575 692.894C901.288 687.705 899.739 682.811 898.147 677.921C896.099 671.627 894.441 665.284 894.744 658.548C895.057 651.603 899.321 645.409 905.747 643.194C909.636 641.853 913.631 641.899 917.625 642.718C924.329 644.093 929.505 647.786 933.564 653.207C937.785 658.844 940.391 665.266 942.723 671.823C945.22 678.844 947.335 686.005 950.855 692.635C954.053 698.657 958.107 703.874 964.126 707.317C969.614 710.457 975.644 711.658 981.868 711.871C986.406 712.026 990.958 712.003 995.491 711.556C1000.09 711.101 1004.73 710.787 1009.05 708.93C1013.25 707.124 1016.08 704.165 1016.9 699.495C1017.88 693.92 1013.94 689.832 1008.39 690.748C1006.7 691.026 1005.01 691.305 1003.32 691.602C999.327 692.304 995.637 691.586 992.35 689.171C990.265 687.639 988.461 685.805 986.978 683.674C983.944 679.315 982.121 674.442 980.929 669.309C979.748 664.222 978.749 659.09 976.935 654.17C975.312 649.766 973.151 645.744 969.354 642.767C966.719 640.699 963.668 639.662 960.492 638.856C956.593 637.867 952.589 637.285 948.841 635.719C943.744 633.59 941.208 629.833 941.174 624.368C941.141 619.161 943.347 614.929 946.804 611.241C950.55 607.243 955.266 604.557 959.867 601.731C973.905 593.103 985.964 582.299 995.969 569.195C999.97 563.956 1003.85 558.601 1008.92 554.285C1013.09 550.742 1017.67 548.209 1023.36 548.534C1024.74 548.614 1025.18 548.039 1025.3 546.81C1025.39 545.93 1025.29 545.106 1025.01 544.287C1023.99 541.308 1021.92 539.352 1018.96 538.452C1015.57 537.423 1012.09 537.555 1008.57 537.627C1002.4 537.752 996.251 538.035 990.112 538.703C983.276 539.445 976.567 540.742 970.064 542.989C956.463 547.689 946.597 556.208 942.159 570.295C940.718 574.869 939.192 579.419 937.589 583.938C935.522 589.767 932.36 594.911 927.608 598.97C922.252 603.543 915.021 604.712 909.635 601.744C902.208 597.652 898.968 589.294 899.671 582.223C900.436 574.534 904.457 568.419 909.919 563.165C912.459 560.721 915.265 558.609 918.426 556.524L918.425 556.523Z" fill="#007CFF"/>
<path d="M1133.03 571.7C1139.54 574.699 1142.96 580.855 1147.16 586.137C1150.88 590.829 1152.09 596.609 1152.25 602.562C1152.35 606.167 1152.23 609.762 1151.38 613.262C1151.75 613.692 1152.18 613.573 1152.59 613.475C1159.91 611.736 1166.32 613.685 1172.04 618.325C1175.61 621.215 1178.07 625.097 1181.08 628.486C1187.07 635.238 1189.47 643.47 1190.82 652.14C1192.13 660.541 1192.79 668.986 1192.46 677.485C1192.18 684.88 1190.59 691.922 1186.17 698.063C1182.16 703.629 1176.44 706.59 1170.04 708.436C1164.35 710.076 1158.49 710.879 1152.67 711.905C1138.01 714.493 1123.34 717.05 1108.67 719.602C1098.63 721.346 1088.6 723.111 1078.55 724.764C1074.07 725.503 1069.54 725.899 1065.01 724.942C1061.3 724.157 1058.07 722.593 1055.66 719.523C1053.65 716.964 1051.46 714.545 1049.44 711.989C1046.79 708.629 1045.26 704.944 1046.39 700.535C1046.83 698.791 1047.89 697.453 1049.03 696.183C1058.1 686.069 1063.21 674.043 1066.03 660.929C1068.07 651.431 1068.9 641.811 1068.72 632.098C1068.63 627.121 1068.79 622.131 1068.51 617.166C1067.95 607.524 1067.38 597.87 1065.9 588.313C1064.87 581.633 1061.84 575.812 1057.73 570.506C1055.62 567.797 1053.6 565.014 1051.99 561.973C1049.94 558.094 1048.91 554.056 1049.91 549.603C1051.05 544.549 1054.28 541.145 1058.41 538.467C1064.03 534.819 1070.33 532.804 1076.87 531.687C1091.88 529.121 1106.93 526.759 1121.97 524.31C1130.92 522.851 1139.86 521.297 1148.83 519.953C1154.52 519.1 1160.24 518.711 1165.93 520.165C1170.23 521.266 1173.78 523.547 1176.65 526.879C1178.83 529.41 1180.88 532.053 1183.06 534.593C1186.86 539.047 1188.82 544.353 1189.63 549.997C1190.97 559.285 1190.86 568.615 1189.27 577.891C1188.99 579.58 1188.38 581.187 1187.65 582.752C1184.84 588.741 1178.78 590.2 1173.33 587.943C1170.62 586.818 1168.22 585.146 1165.92 583.33C1162.7 580.777 1159.6 578.057 1156 576.016C1149.07 572.086 1141.62 570.598 1133.71 571.295C1133.49 571.315 1133.19 571.254 1133.03 571.7ZM1055.44 709.682C1056.36 709.557 1057.11 709.479 1057.85 709.346C1068.46 707.439 1079.07 705.527 1089.69 703.611C1102.66 701.268 1115.63 698.933 1128.6 696.568C1137.86 694.878 1147.13 693.211 1156.37 691.411C1167.99 689.145 1175.32 682.316 1177.75 670.603C1178.68 666.166 1178.89 661.675 1178.6 657.115C1178.11 649.361 1176.71 641.835 1173.9 634.594C1172.86 631.931 1171.3 629.573 1169.19 627.604C1164.23 622.965 1155.07 622.344 1150.78 629.046C1147.4 634.331 1142.97 638.806 1137.79 642.449C1130.78 647.386 1123.12 649.831 1114.5 648.129C1104.63 646.182 1098.72 638.454 1099.53 628.469C1099.77 625.424 1100.99 622.714 1103.12 620.399C1106.12 617.138 1110.04 615.743 1114.14 614.682C1117.21 613.888 1120.32 613.292 1123.39 612.491C1129.81 610.811 1134.75 607.265 1137.14 600.857C1138.95 595.969 1138.99 591.097 1136.08 586.536C1134.2 583.594 1131.46 582.156 1127.97 582.771C1124.76 583.335 1122.88 585.367 1122.3 588.62C1122.03 590.176 1121.26 591.577 1120.09 592.61C1114.63 597.398 1106.9 596.946 1102.66 590.659C1099.79 586.389 1099.05 581.68 1099.89 576.668C1101.08 569.581 1104.75 563.922 1110.13 559.334C1117.82 552.773 1126.83 549.862 1136.83 550.842C1148.04 551.939 1157.65 556.838 1165.85 564.49C1167.65 566.17 1169.61 566.424 1171.77 565.602C1174.79 564.457 1176.21 561.983 1176.27 558.985C1176.42 551.452 1175.11 544.161 1171.68 537.369C1169.96 533.95 1167.26 531.468 1163.68 530.095C1159.64 528.548 1155.38 528.54 1151.23 529.233C1136.54 531.679 1121.88 534.297 1107.22 536.89C1095.84 538.902 1084.47 540.948 1073.1 543.03C1069.58 543.676 1065.98 544.112 1062.76 545.91C1060.11 547.385 1058.37 549.481 1058.01 552.522C1057.72 555.015 1058.69 557.234 1059.95 559.301C1061.29 561.502 1062.89 563.522 1064.54 565.504C1067.53 569.108 1069.71 573.162 1071.16 577.616C1073 583.27 1073.81 589.116 1074.37 595C1074.79 599.426 1074.96 603.877 1075.47 608.292C1076.36 616.127 1076.27 624.009 1076.79 631.86C1076.94 634.087 1076.51 636.306 1076.5 638.52C1076.46 644.703 1075.84 650.818 1074.9 656.916C1072.95 669.608 1068.81 681.484 1061.81 692.315C1059.95 695.195 1058.22 698.167 1056.94 701.357C1055.89 703.964 1055.1 706.652 1055.44 709.678L1055.44 709.682ZM1131.91 632.618C1138.02 627.055 1129.26 629.133 1129.26 629.133C1125.8 629.541 1121.39 630.446 1120.55 630.74C1118.55 631.435 1116.14 633.259 1115.22 635.073C1114.07 637.376 1116.84 638.314 1119.36 638.348C1124.17 638.414 1128.01 636.236 1131.91 632.618Z" fill="#007CFF"/>
<path d="M747.184 734.234C735.752 734.507 725.206 732.106 715.271 727.28C706.865 723.197 699.425 717.691 693.244 710.632C688.052 704.703 682.808 698.798 678.5 692.165C672.493 682.916 668.546 672.859 666.905 661.928C666.256 657.605 665.772 653.25 666.027 648.889C666.459 641.534 667.62 634.271 669.57 627.156C673.287 613.592 677.721 600.277 683.485 587.428C688.992 575.151 695.751 563.637 704.858 553.672C715.094 542.472 727.102 533.838 741.811 529.364C746.169 528.039 750.599 527.203 755.15 526.826C767.083 525.837 778.096 528.58 788.304 534.712C792.981 537.521 796.944 541.183 800.436 545.355C802.471 547.786 804.447 550.266 806.472 552.704C810.027 556.983 812.572 561.824 814.265 567.088C814.878 568.997 815.762 569.879 817.878 569.876C820.159 569.872 822.202 570.888 823.82 572.564C827.039 575.899 830.13 579.388 832.674 583.235C836.442 588.936 836.042 594.962 832.743 600.76C828.853 607.599 822.866 612.291 816.196 616.187C811.692 618.817 806.858 620.486 801.604 620.659C796.86 620.816 792.896 619.122 789.859 615.395C787.747 612.806 785.579 610.262 783.478 607.662C780.867 604.43 779.852 600.519 778.91 596.593C778.312 594.096 777.736 591.593 777.23 589.077C776.932 587.596 776.104 586.969 774.628 586.785C771.963 586.452 769.482 587.086 767.148 588.177C750.823 595.807 741.504 608.854 738.223 626.316C737.011 632.767 737.318 639.262 739.53 645.576C739.977 646.853 740.678 647.545 741.881 648.032C745.592 649.537 749.259 649.261 752.904 647.893C757.041 646.342 760.641 643.845 764.26 641.376C768.365 638.576 772.381 635.636 776.963 633.595C784.58 630.203 791.999 630.838 799.22 634.668C802.567 636.443 805.528 638.778 807.956 641.738C811.052 645.512 814.377 649.102 817.145 653.136C820.545 658.092 822.04 663.65 822.233 669.6C822.648 682.371 818.034 693.468 810.447 703.373C797.649 720.082 780.492 729.61 759.888 733.225C755.566 733.984 751.229 734.364 747.183 734.23L747.184 734.234ZM719.946 623.655C719.837 621.188 720.217 617.785 720.844 614.409C722.36 606.246 725.214 598.55 729.205 591.293C733.641 583.224 739.256 576.141 747.188 571.199C756.526 565.382 766.188 564.232 776.204 569.489C780.489 571.739 783.969 574.877 786.256 579.149C788.241 582.857 789.003 586.824 788.13 591.057C787.672 593.274 788.638 595.151 790.379 596.487C793.547 598.92 797.133 599.686 801.049 598.777C804.539 597.966 807.154 595.731 809.661 593.379C812.849 590.388 815.691 587.023 819.296 584.483C820.307 583.77 820.313 583.035 819.489 582.145C818.105 580.651 816.287 580.214 814.393 579.998C812.439 579.775 810.474 579.664 808.516 579.472C802.72 578.905 799.845 576.481 798.33 570.931C797.653 568.45 797.131 565.931 796.888 563.378C796.004 554.088 791.358 547.383 783.208 542.944C776.008 539.021 768.248 537.547 760.168 537.724C750.583 537.935 741.558 540.568 733.062 544.907C720.025 551.566 709.561 561.153 701.403 573.277C693.375 585.211 688.053 598.361 684.015 612.082C681.015 622.277 678.926 632.685 676.851 643.094C675.274 651.005 675.194 658.905 677.014 666.792C679.889 679.242 685.959 689.874 695.116 698.789C706.243 709.622 719.674 715.126 735.052 715.99C741.489 716.351 747.872 715.653 754.178 714.185C772.891 709.827 788.147 700.189 799.316 684.477C803.706 678.301 806.53 671.466 806.27 663.629C806.059 657.253 803.975 651.767 799.338 647.285C791.898 640.095 778.635 641.991 774.058 650.299C772.416 653.279 769.973 655.586 767.184 657.505C762.279 660.881 756.833 662.162 750.892 662.131C742.294 662.088 735.46 658.424 729.915 652.253C722.898 644.444 719.868 635.068 719.945 623.656L719.946 623.655Z" fill="#007CFF"/>
<path d="M502.401 648.674C502.264 640.354 502.528 633.665 503.093 627.011C504.259 613.235 506.703 599.693 511.768 586.755C518.542 569.454 528.756 554.67 544.063 543.784C552.643 537.684 562.176 533.797 572.593 532.054C577.955 531.156 583.355 530.852 588.737 531.205C602.48 532.104 614.993 536.533 626.173 544.701C632.83 549.566 638.1 555.722 643.303 562.008C647.694 567.311 651.803 572.774 654.87 578.962C658.827 586.938 661.214 595.367 662.429 604.185C663.323 610.673 663.526 617.186 663.179 623.676C662.602 634.461 660.709 645.078 658.04 655.544C655.605 665.091 652.955 674.577 649.255 683.725C646.352 690.904 642.767 697.73 637.862 703.781C631.231 711.961 622.825 717.744 613.145 721.712C604.756 725.15 596.013 726.989 586.946 727.591C572.145 728.574 557.698 726.88 543.626 722.278C535.549 719.636 528.128 715.687 522.234 709.411C518.307 705.229 514.588 700.824 511.304 696.116C507.048 690.014 505.071 683.01 503.987 675.734C503.305 671.162 503.107 666.55 502.795 661.94C502.46 656.97 502.75 652 502.401 648.674ZM515.913 647.983C515.817 655.193 516.538 662.338 517.297 669.492C518.246 678.437 521.108 686.837 524.167 695.199C524.743 696.774 525.803 697.913 527.239 698.862C530.405 700.954 533.735 702.723 537.212 704.192C550.477 709.801 564.256 711.999 578.642 710.564C589.882 709.444 600.486 706.397 610.404 700.997C618.6 696.534 624.615 690.058 628.278 681.455C633.891 668.27 638.399 654.717 641.705 640.773C644.298 629.842 645.744 618.802 645.412 607.513C645.041 594.873 642.243 582.907 636.28 571.762C629.534 559.153 619.894 549.65 606.196 544.738C599.763 542.431 593.05 541.242 586.276 541.572C578.629 541.945 571.264 544.034 564.232 547.147C556.779 550.447 550.11 554.944 544.384 560.714C538.282 566.862 533.746 574.144 530.18 581.997C520.663 602.956 516.006 624.984 515.914 647.985L515.913 647.983Z" fill="#007CFF"/>
<path d="M551.828 621.699C552.219 611.736 553.36 601.901 557.587 592.715C561.44 584.343 567.445 578.048 576.324 575.077C584.933 572.197 592.829 573.798 599.249 580.35C604.217 585.419 608.856 590.818 612.498 596.985C613.562 598.787 614.31 600.673 614.716 602.696C616.343 610.798 616.352 618.877 613.733 626.774C609.119 640.689 599.702 649.397 585.043 651.429C578.736 652.302 572.212 652.177 566.196 649.098C558.564 645.194 554.131 638.968 552.409 630.665C551.794 627.698 551.858 624.704 551.828 621.699ZM599.471 613.311C599.533 607.142 598.924 601.708 597.904 596.32C597.373 593.513 596.937 593.118 594.029 592.897C587.651 592.411 582.421 594.884 578.334 599.599C574.155 604.421 572.565 610.396 571.588 616.55C570.943 620.605 570.521 624.678 570.398 628.791C570.301 632.032 570.331 635.231 570.95 638.431C571.213 639.786 571.91 640.247 573.178 640.431C576.481 640.911 579.628 640.178 582.743 639.299C591.33 636.877 596.753 631.386 598.719 622.604C599.455 619.317 599.571 615.986 599.472 613.312L599.471 613.311Z" fill="#007CFF"/>
<path d="M1465.62 945.139C1490.82 966.708 1509.49 924.573 1516.59 904.888C1517.04 903.312 1522.09 901.516 1524.62 901.843C1610.73 923.981 1567.94 865.681 1527.99 841.861C1519.72 834.148 1527.34 820.335 1526.67 810.171C1531.14 793.583 1510.11 785.917 1497.92 796.872C1491.92 802.693 1486.05 808.645 1479.94 814.358C1464.83 827.032 1447.02 813.395 1431.35 810.973C1399.32 805.284 1398.22 838.957 1417.61 853.965C1426.63 865.301 1424.94 862.578 1415.71 873.233C1375.85 913.676 1414.4 915.651 1450.28 909.388C1465.78 909.813 1458.36 935.389 1465.62 945.139ZM1479.22 920.415C1467.72 923.149 1472.68 905.006 1469.61 898.501C1469.59 874.084 1418.84 903.995 1428.16 886.507C1431.58 882.409 1434.96 878.157 1438.99 874.665C1459.39 856.904 1416.09 838.213 1432.61 833.278C1447.21 830.108 1459.31 843.045 1472.77 842.596C1479.05 837.984 1507.49 799.978 1508.57 821.54C1501.98 856.34 1504.25 849.544 1530.7 869.838C1561.4 896.457 1528.31 886.272 1509.83 882.214C1495.95 877.009 1497.38 912.573 1479.22 920.415Z" fill="#FC6363"/>
<path d="M1218.44 985.915C1229.91 985.372 1241.58 984.655 1253.07 984.202C1250.13 982.78 1247.36 981.045 1244.81 978.867C1244.56 978.649 1244.31 978.421 1244.08 978.19C1236.81 978.486 1229.55 978.826 1222.3 979.137C1221.16 981.464 1219.88 983.726 1218.44 985.915Z" fill="#FC6363"/>
<path d="M1224.08 975.213C1229.72 975.059 1235.38 974.892 1241.02 974.728C1239.37 972.719 1237.75 970.684 1236.05 968.708C1232.82 968.764 1229.59 968.819 1226.37 968.871C1225.7 971.027 1224.94 973.143 1224.08 975.213Z" fill="#FC6363"/>
<path d="M1099.16 982.569C1099.29 982.559 1099.42 982.547 1099.55 982.538C1099.13 981.67 1098.85 980.733 1098.6 979.799C1098.28 978.546 1098.07 977.311 1097.95 976.09C1090.54 976.662 1083.1 977.183 1075.75 977.714C1074.2 977.826 1072.65 977.957 1071.11 978.078C1072.59 980.134 1073.85 982.293 1074.8 984.594C1082.91 983.887 1091.02 983.206 1099.16 982.569Z" fill="#FC6363"/>
<path d="M907.067 1005.71C897.962 1006.38 888.974 1007.23 879.917 1007.98C871.697 1008.66 863.576 1009.24 855.406 1010C848.289 1016.23 839.98 1020.56 830.199 1022.57C829.572 1022.69 828.945 1022.8 828.317 1022.91C830.519 1022.68 832.724 1022.46 834.922 1022.24C846.54 1021.05 858.072 1019.71 869.729 1018.67C881.387 1017.63 892.831 1016.58 904.576 1015.49C907.845 1015.18 911.116 1014.91 914.388 1014.65C912.219 1012.1 910.103 1009.5 907.99 1006.91C907.669 1006.51 907.364 1006.11 907.068 1005.71H907.067Z" fill="#FC6363"/>
<path d="M897.287 996.496C899.111 996.392 900.943 996.302 902.775 996.211C902.417 994.318 902.312 992.339 902.497 990.262C902.539 989.789 902.607 989.331 902.698 988.882C899.734 989.024 896.771 989.181 893.81 989.372C890.423 989.591 887.158 989.673 883.813 989.869C879.508 990.122 875.211 990.409 870.915 990.674C869.368 993.344 867.671 995.936 865.833 998.454C876.309 997.819 886.719 997.099 897.289 996.496H897.287Z" fill="#FC6363"/>
<path d="M1087.54 989.867C1083.86 990.235 1080.2 990.602 1076.56 990.973C1076.94 993.812 1076.83 996.449 1076.26 998.897C1083.49 998.095 1090.73 997.175 1098.02 996.37C1101.76 995.956 1105.5 995.561 1109.24 995.173C1107.16 992.988 1105.26 990.625 1103.46 988.191C1098.12 988.766 1092.8 989.341 1087.53 989.868L1087.54 989.867Z" fill="#FC6363"/>
<path d="M661.078 1009.18C665.986 1009.1 670.854 1008.97 675.741 1008.89C677.132 1008.87 678.523 1008.83 679.914 1008.81C678.463 1006.14 677.79 1003.39 677.849 1000.55C674.301 1000.63 670.757 1000.69 667.196 1000.74C665.752 1003.18 664.143 1005.54 662.295 1007.78C661.897 1008.26 661.49 1008.72 661.077 1009.18L661.078 1009.18Z" fill="#FC6363"/>
<path d="M1589.67 992.906C1583.12 992.963 1576.65 993.545 1570.07 993.375C1555.91 993.01 1542.32 992.679 1528.01 991.817C1512.27 990.867 1496.36 988.503 1480.47 986.349C1467.91 984.645 1455.31 982.631 1442.54 980.907C1421.64 978.087 1400.31 976.259 1379.24 974.176C1367.95 973.061 1356.61 971.829 1345.28 971.143C1344.62 972.699 1343.74 974.203 1342.59 975.604C1342.28 975.987 1341.95 976.335 1341.62 976.694C1358.76 977.6 1375.81 979.184 1392.9 980.776C1398.43 981.291 1404.05 981.764 1409.58 982.272C1409.93 982.304 1410.34 982.427 1410.57 982.56C1410.8 982.694 1410.47 982.841 1410.58 982.991C1406.51 982.725 1402.4 982.462 1398.35 982.171C1387.18 981.369 1375.91 980.474 1364.75 979.804C1356.35 979.299 1348.04 978.925 1339.67 978.636C1337.09 980.945 1334.14 982.709 1330.99 984.119C1341.2 984.326 1351.42 984.553 1361.64 985.153C1372.99 985.819 1384.57 986.368 1395.87 987.202C1407.18 988.035 1418.31 988.904 1429.55 989.708C1433.12 989.964 1436.53 990.288 1440.08 990.607C1440.09 990.799 1440.1 990.989 1440.12 991.18C1437.5 991.053 1434.97 990.917 1432.34 990.786C1424.55 990.399 1416.69 990.042 1408.9 989.62C1395.87 988.912 1382.75 988.393 1369.74 987.996C1353.62 987.503 1337.48 987.483 1321.41 987.464C1312.76 989.939 1303.91 991.242 1294.83 991.512C1285.18 991.799 1275.72 990.884 1266.42 988.671C1256.14 989.14 1245.97 989.794 1235.63 990.533C1228.23 991.063 1220.7 991.535 1213.22 992.077C1209.31 995.662 1204.62 998.107 1199.23 999.485C1195.52 1000.43 1191.8 1001.32 1188.07 1002.17C1189.4 1002.02 1190.74 1001.88 1192.08 1001.72C1203.59 1000.38 1215.2 999.478 1226.79 998.577C1244.63 997.193 1262.23 995.797 1280.2 995.055C1294.74 994.454 1309.45 994.224 1324.14 994.186C1334.64 994.16 1345.34 993.902 1355.9 994.068C1368.3 994.263 1380.79 994.748 1393.21 995.211C1402.98 995.575 1412.83 995.985 1422.58 996.332C1431.14 996.637 1439.63 997.095 1448.16 997.488C1451.6 997.646 1454.96 997.718 1458.39 997.82C1458.44 998.026 1458.49 998.232 1458.55 998.437C1457.51 998.457 1456.48 998.482 1455.43 998.471C1437.87 998.263 1420.28 998.199 1402.72 998.213C1388.72 998.225 1374.77 998.461 1360.79 998.683C1350.89 998.84 1340.76 999.462 1330.96 999.889C1317.92 1000.46 1305.04 1000.87 1292.14 1001.82C1278.78 1002.8 1265.68 1004.09 1252.37 1005.46C1239.95 1006.74 1227.17 1008.1 1214.83 1009.56C1203.01 1010.96 1191.5 1012.66 1179.82 1014.37C1166.92 1016.26 1154 1018.55 1141.2 1020.66C1126.24 1023.14 1111.39 1025.55 1096.52 1028.24C1085.26 1030.27 1073.98 1032.22 1062.76 1034.3C1052.49 1036.22 1042.14 1038.02 1031.92 1039.88C1020.07 1042.02 1008.13 1044.03 996.356 1045.94C985.172 1047.74 973.979 1049.24 962.909 1050.82C953.097 1052.21 943.327 1053.67 933.656 1054.97C918.203 1057.03 902.851 1059.7 887.582 1062.02C872.313 1064.34 857.258 1066.49 842.14 1069C831.435 1070.78 820.945 1072.5 810.285 1074.26C797.999 1076.28 785.739 1078.21 773.428 1080.11C763.97 1081.57 754.465 1083.14 744.998 1084.55C737.166 1085.71 729.35 1086.64 721.516 1087.78C714.746 1088.77 708.065 1089.77 701.239 1090.66C692.272 1091.83 683.154 1092.85 674.139 1093.85C667.687 1094.56 661.276 1095.22 654.813 1095.89C647.853 1096.62 640.867 1097.31 633.861 1097.77C622.932 1098.48 611.887 1099.18 600.966 1099.82C590.046 1100.46 579.249 1100.74 568.325 1101.01C561.067 1101.18 553.802 1101.23 546.515 1101.17C540.008 1101.11 533.448 1100.99 526.925 1100.79C519.206 1100.56 511.49 1100.33 503.766 1099.91C493.552 1099.35 483.333 1098.8 473.124 1097.95C460.513 1096.9 447.878 1095.69 435.288 1094.34C426.549 1093.4 417.787 1092.44 409.099 1091.17C398.534 1089.64 388.023 1087.97 377.519 1086.11C363.868 1083.68 350.309 1080.78 336.921 1077.2C324.785 1073.96 312.741 1070.38 300.823 1066.47C287.594 1062.12 274.676 1057.09 261.941 1051.46C247.634 1045.13 233.93 1037.71 220.478 1029.72C215.686 1026.87 211.135 1023.67 206.42 1020.68C205.712 1020.23 205.038 1019.62 204.37 1019.1C205.004 1017.61 205.874 1016.07 206.521 1014.61C207.559 1012.27 207.798 1010.04 207.199 1007.62C206.401 1004.38 205.418 1001.33 204.151 998.3C202.074 993.326 199.658 988.644 197.434 983.7C196.119 980.775 194.883 977.663 194.211 974.486C194.712 974.65 195.486 974.866 195.868 975.19C202.966 981.23 210.12 987.043 217.836 992.198C226.139 997.744 234.542 1002.91 243.218 1007.84C250.623 1012.04 258.185 1015.96 265.964 1019.47C275.865 1023.94 285.662 1028.18 295.892 1032.07C306.123 1035.96 316.605 1039.58 327.177 1042.81C343.5 1047.79 360.139 1051.81 376.828 1055.5C384.54 1057.2 392.296 1058.79 400.088 1060.13C410.084 1061.85 420.132 1063.34 430.177 1064.81C438.687 1066.06 447.211 1067.12 455.759 1068.1C463.195 1068.95 470.657 1069.6 478.109 1070.28C484.872 1070.89 491.641 1071.48 498.413 1071.98C502.359 1072.27 506.316 1072.43 510.267 1072.65C515.76 1072.94 521.277 1073.26 526.766 1073.53C531.225 1073.75 535.735 1073.97 540.173 1074.1C547.094 1074.29 554.036 1074.33 560.917 1074.33C576.982 1074.34 592.964 1074.13 608.991 1073.74C613.741 1073.62 618.471 1073.41 623.19 1073.18C630.095 1072.86 637.019 1072.54 643.88 1072C648.396 1071.65 652.829 1071.28 657.31 1070.85C663.032 1070.3 668.717 1069.63 674.434 1069.11C681.565 1068.46 688.748 1067.87 695.844 1067.09C702.44 1066.36 708.937 1065.45 715.5 1064.62C728.303 1063.02 741.165 1061.59 753.941 1059.88C765.653 1058.32 777.309 1056.81 788.998 1055.18C799.545 1053.71 810.023 1051.99 820.587 1050.57C831.805 1049.05 842.95 1047.54 854.203 1045.98C862.993 1044.75 871.861 1043.78 880.721 1042.63C891.488 1041.23 901.949 1039.86 912.861 1038.38C923.773 1036.9 935.034 1035.92 946.174 1034.64C958.909 1033.18 971.758 1031.73 984.622 1030.16C991.562 1029.31 998.659 1028.24 1005.72 1027.26C1017.6 1025.62 1029.5 1024.03 1041.46 1022.24C1054.72 1020.26 1067.83 1018.14 1081.23 1016.19C1094.64 1014.23 1108.27 1012.26 1121.85 1010.51C1128.07 1009.7 1134.29 1008.82 1140.53 1007.93C1139.38 1007.88 1138.24 1007.81 1137.09 1007.72C1130.34 1007.2 1123.9 1005.58 1118.16 1002.3C1110.08 1003.33 1102 1004.38 1093.94 1005.45C1086.05 1006.49 1078.22 1007.59 1070.42 1008.7C1069.94 1009.14 1069.46 1009.58 1068.94 1010C1065.03 1013.16 1060.42 1014.76 1055.53 1015.51C1048.46 1016.59 1041.35 1016.38 1034.25 1015.73C1030.99 1015.43 1027.72 1015.22 1024.45 1015.05C1017.8 1015.93 1011.18 1016.78 1004.62 1017.58C987.529 1019.67 970.653 1021.56 953.752 1023.41C941.524 1024.75 929.517 1025.75 917.447 1026.9C907.137 1027.89 897.112 1029.33 886.927 1030.5C874.339 1031.95 861.756 1033.12 849.247 1034.8C838.387 1036.26 827.577 1037.59 816.743 1038.96C807.632 1040.11 798.615 1041.34 789.517 1042.48C780.091 1043.67 770.686 1044.78 761.25 1045.94C752.553 1047.01 743.857 1048.11 735.131 1049.07C727.312 1049.93 719.441 1050.7 711.619 1051.58C705.607 1052.26 699.681 1052.94 693.641 1053.52C685.782 1054.28 677.86 1054.9 669.962 1055.55C664.971 1055.96 659.976 1056.4 654.96 1056.77C646.344 1057.4 637.82 1058.02 629.148 1058.36C616.095 1058.88 603.037 1059.46 589.927 1059.89C581.895 1060.15 573.815 1060.03 565.717 1059.89C556.862 1059.74 547.936 1059.38 539.04 1058.99C533.052 1058.72 527.021 1058.51 521.014 1058.08C511.061 1057.37 501.122 1056.72 491.177 1055.84C478.826 1054.74 466.559 1053.75 454.222 1052.3C441.884 1050.85 429.487 1049.07 417.199 1047.1C404.062 1045 390.97 1042.68 377.944 1039.99C373.128 1039 368.323 1037.92 363.534 1036.8C356.829 1036.6 350.122 1036.37 343.551 1034.73C338.075 1033.36 333.178 1031.1 329.059 1027.59C324.072 1026.05 319.115 1024.41 314.197 1022.64C297.955 1016.8 282.072 1010.24 266.58 1002.56C253.1 995.878 240.38 988.049 227.92 979.599C222.112 975.659 216.78 971.083 211.222 966.782C208.852 964.947 206.691 962.861 204.397 960.871C204.153 960.659 203.853 960.116 203.654 959.821C219.707 955.312 234.737 950.105 249.067 941.448C251.03 942.95 252.98 944.586 254.913 946.109C262.855 952.365 270.879 958.43 279.474 963.736C287.272 968.55 295.158 973.202 303.288 977.393C306.411 979.003 309.551 980.573 312.708 982.109C313.649 977.897 315.103 973.819 316.942 969.841C316.189 969.473 315.433 969.113 314.682 968.741C302.184 962.556 290.399 955.11 278.917 947.204C272.607 942.86 266.746 937.866 260.629 933.251C259.202 932.174 257.914 930.892 256.58 929.69C256.158 929.31 255.859 928.71 255.678 928.202C253.66 922.537 250.416 918.295 245.64 914.77C240.225 910.774 234.594 907.652 228.533 904.93C220.046 901.118 211.452 897.747 202.923 894.047C202.765 893.98 202.616 893.968 202.435 893.867C197.887 891.34 196.62 888.975 197.016 883.631C197.094 882.566 197.197 880.909 197.468 879.62C198.011 877.041 198.859 874.366 199.429 871.705C200.107 868.545 200.669 865.228 201.276 862.033C202.107 862.163 202.531 862.804 203.078 863.361C207.333 867.693 211.6 872.135 215.916 876.359C218.456 878.845 221.3 881.268 223.863 883.529C226.426 885.791 228.749 887.901 231.297 889.959C236.388 894.072 241.331 898.225 246.593 902.042C254.296 907.63 262.052 913.074 270.039 918.214C277.449 922.982 285.046 927.391 292.76 931.624C300.94 936.112 309.222 940.312 317.637 944.331C321.452 946.154 325.313 947.897 329.195 949.585C330.999 947.033 332.839 944.506 334.684 941.983C330.913 940.394 327.162 938.76 323.455 937.001C306.211 928.821 289.672 919.59 273.57 909.338C266.883 905.08 260.487 900.373 254.129 895.625C248.12 891.139 242.367 886.316 236.619 881.481C232.367 877.904 228.192 874.21 224.238 870.302C218.501 864.632 213.026 858.736 207.506 852.851C204.871 850.042 202.419 847.082 200.001 844.074C196.714 839.986 193.597 835.86 189.73 832.257C186.43 829.179 182.783 826.874 178.559 825.22C177.071 824.637 175.469 824.232 173.98 823.642C171.396 823.624 168.823 823.601 166.239 823.568C164.546 824.124 162.77 824.463 161.092 825.07C155.687 827.028 150.816 829.598 146.417 833.293C141.257 837.626 136.79 842.608 131.693 846.977C127.522 850.551 123.574 854.393 118.557 856.769C110.925 860.382 103.659 860.912 95.4949 858.967C89.6946 857.585 84.3617 854.945 78.7225 853.131C71.6994 850.871 65.0276 847.683 57.7874 846.065C50.5472 844.447 44.3804 845.459 37.858 849.057C34.1283 851.114 32.0512 854.549 30.2041 858.304C29.9741 858.77 29.5744 859.285 29.2069 859.669C29.2005 861.735 29.1317 863.788 29.1725 865.849C29.1758 866.018 29.424 866.091 29.4766 866.228C31.6364 871.83 35.075 876.482 38.5317 881.312C41.1955 885.034 44.057 888.477 46.9034 892.042C50.343 896.352 53.7418 900.537 56.1831 905.529C56.9664 907.132 57.5392 908.839 57.8282 910.634C58.2677 913.365 57.9346 915.72 56.6151 918.207C51.6658 927.535 46.984 937.029 43.7636 947.089C40.5433 957.15 38.3813 967.046 37.2992 977.553C36.5901 984.443 37.1112 991.217 38.6241 998.002C39.1969 1000.57 40.4809 1003.08 41.6844 1005.35C42.8879 1007.63 44.5266 1009.2 46.5306 1010.7C51.9226 1014.74 57.2995 1018.87 62.7367 1022.82C69.3558 1027.62 75.9792 1032.34 82.7918 1036.84C94.6622 1044.68 106.768 1052.11 119.24 1058.92C128.751 1064.12 138.348 1069.16 148.034 1073.92C157.72 1078.68 167.489 1083.12 177.411 1087.3C188.207 1091.84 199.103 1096.06 210.129 1100C221.156 1103.94 232.285 1107.52 243.449 1111.07C250.914 1113.44 258.487 1115.45 266.063 1117.44C275.556 1119.95 285.055 1122.5 294.636 1124.64C306.411 1127.26 318.251 1129.69 330.127 1131.82C342.683 1134.07 355.273 1136.21 367.929 1137.9C382.034 1139.8 396.186 1141.5 410.342 1143.08C418.747 1144.02 427.201 1144.62 435.636 1145.23C445.619 1145.95 455.599 1146.55 465.589 1147.12C472.909 1147.54 480.232 1147.83 487.562 1148.1C492.912 1148.3 498.282 1148.37 503.641 1148.56C504.382 1148.59 505.127 1148.85 505.856 1148.99C527.775 1148.88 549.689 1148.45 571.605 1148.12C572.407 1147.97 573.22 1147.7 574.036 1147.66C580.86 1147.35 587.696 1147.12 594.511 1146.84C596.64 1146.75 598.807 1146.66 600.903 1146.5C608.361 1145.96 615.818 1145.23 623.224 1144.5C630.218 1143.8 637.184 1143.22 644.132 1142.41C653.227 1141.35 662.383 1140.19 671.438 1139.1C680.99 1137.95 690.433 1136.57 699.889 1135.03C713.585 1132.8 727.23 1130.51 740.898 1128.29C748.952 1126.99 756.909 1125.51 764.906 1123.99C775.892 1121.9 786.815 1119.86 797.817 1117.82C807.525 1116.01 817.035 1114.13 826.793 1112.21C836.55 1110.3 846.356 1108.3 856.225 1106.41C870.548 1103.67 884.838 1100.95 899.27 1098.34C914.11 1095.66 928.921 1092.85 943.834 1089.89C955.138 1087.64 966.763 1085.78 978.233 1083.78C987.792 1082.11 997.445 1080.16 1007.01 1078.24C1016.58 1076.32 1026.14 1074.3 1035.71 1072.23C1049.55 1069.23 1063.45 1066.31 1077.3 1063.23C1085.94 1061.31 1094.52 1059.25 1103.17 1057.2C1117.87 1053.72 1132.64 1050.56 1147.45 1047.52C1155.92 1045.78 1164.34 1043.73 1172.84 1042.05C1180.92 1040.45 1189.06 1039.16 1197.18 1037.62C1206.94 1035.76 1216.7 1033.63 1226.57 1032.16C1241.62 1029.92 1256.61 1027.84 1271.73 1025.55C1280.49 1024.23 1289.19 1022.71 1298.15 1021.91C1307.12 1021.11 1316.03 1020.35 1325.18 1019.48C1334.32 1018.6 1343.79 1017.6 1353.1 1016.67C1358.37 1016.14 1363.93 1015.89 1369.3 1015.65C1378.15 1015.25 1386.99 1014.67 1395.86 1014.35C1406 1013.98 1416.17 1013.62 1426.33 1013.47C1440.35 1013.27 1454.44 1013.45 1468.46 1013.43C1476.55 1013.42 1484.69 1013.54 1492.73 1013.39C1502.98 1013.18 1513.2 1012.51 1523.35 1011.75C1536.96 1010.74 1550.25 1009.14 1563.7 1007.05C1573.9 1005.47 1583.91 1003.39 1593.86 1000.62C1594.3 999.275 1594.76 997.967 1595.2 996.619C1593.88 994.229 1592.55 992.872 1589.67 992.897L1589.67 992.906ZM59.8225 999.192C58.3365 999.788 56.7107 1000.31 55.1182 1000.31C52.2471 1000.3 50.4236 999.336 49.4297 996.482C48.4357 993.629 48.4712 990.414 49.0439 987.396C50.9856 977.185 54.0158 967.465 58.2204 957.986C61.717 950.105 65.7701 942.532 69.3204 934.692C71.2212 930.496 72.8953 926.217 73.6314 921.677C74.1644 918.391 73.8184 915.207 72.7341 912.126C70.6786 906.282 67.3647 901.3 63.722 896.388C59.2208 890.32 54.3295 884.679 49.6682 878.75C47.7598 876.322 45.5764 874.19 43.8131 871.603C41.8488 868.722 40.5648 865.962 40.0834 862.322C39.7857 860.07 41.16 857.673 43.6368 857.032C45.6344 856.516 47.7921 856.155 49.9444 856.504C58.921 857.966 67.6011 860.47 76.1039 863.749C88.0237 868.343 99.778 873.382 111.66 878.07C113.891 878.951 116.144 879.817 118.43 880.524C120.09 881.038 121.565 880.979 123.115 880.147C126.778 878.181 130.155 876.01 133.223 873.147C137.164 869.467 140.631 865.406 144.273 861.363C147.916 857.319 151.395 853.033 155.526 849.363C161.313 844.221 167.651 840.935 175.117 838.843C176.101 838.568 177.166 838.485 178.191 838.59C183.376 839.116 185.936 842 186.728 847.007C186.863 847.855 186.654 848.338 186.755 849.123C186.767 849.214 186.966 849.098 186.957 849.169C186.374 853.664 185.556 858.123 184.867 862.612C183.809 869.508 182.649 876.298 183.052 883.325C183.385 889.125 184.821 894.348 188.172 899.197C191.012 903.305 194.939 906.072 199.348 908.367C202.3 909.904 205.559 910.849 208.684 911.988C215.206 914.365 221.604 917.031 227.885 919.974C229.901 920.919 231.989 921.785 233.929 922.827C236.278 924.086 238.457 925.625 239.89 927.836C241.322 930.046 240.872 931.706 238.794 933.2C237.389 934.209 235.656 934.976 233.943 935.405C227.622 936.989 221.251 938.221 214.879 939.625C206.572 941.455 198.305 943.068 190.35 946.248C186.927 947.616 183.684 949.338 181.104 952.086C177.838 955.565 177.244 959.431 177.714 964.079C177.782 964.752 178.061 965.417 178.305 966.061C181.604 974.78 185.372 983.187 189.779 991.416C191.515 994.659 193.038 998.067 194.276 1001.54C194.865 1003.2 195.19 1005.1 195.073 1006.81C194.891 1009.5 193.529 1011.45 191.157 1012.55C187.993 1014.01 184.732 1014.07 181.445 1013.28C172.991 1011.24 165.546 1007.72 158.354 1002.95C150.64 997.838 143.879 991.695 136.728 985.867C131.459 981.572 126.315 977.201 120.712 973.286C118.047 971.424 115.227 969.796 112.022 968.871C107.915 967.686 104.613 968.233 101.123 970.899C97.139 973.942 93.1224 977.261 89.0198 980.273C84.1758 983.829 79.4274 987.543 74.4556 990.973C69.8275 994.166 65.062 997.087 59.8225 999.193V999.192ZM1429.46 1004.91C1419.71 1005.38 1409.85 1005.9 1400.12 1006.41C1391.19 1006.88 1382.42 1007.18 1373.51 1007.61C1366.49 1007.94 1359.23 1008.46 1352.26 1009.12C1343.5 1009.95 1334.83 1010.75 1326.13 1011.56C1318.41 1012.28 1310.82 1012.94 1303.11 1013.62C1297.18 1014.15 1291.01 1014.58 1285.16 1015.42C1275.65 1016.79 1266.35 1018.35 1256.89 1019.7C1248.81 1020.86 1240.83 1021.84 1232.71 1022.94C1227.73 1023.61 1222.43 1024.48 1217.48 1025.34C1211.33 1026.42 1205.31 1027.4 1199.22 1028.52C1191.84 1029.88 1184.49 1031.29 1177.12 1032.68C1170.18 1033.99 1163.24 1035.42 1156.34 1036.8C1150.37 1038 1144.43 1039.2 1138.49 1040.45C1128.04 1042.65 1117.55 1044.92 1107.15 1047.19C1097.68 1049.26 1088.23 1051.25 1078.79 1053.28C1066.74 1055.87 1054.69 1058.55 1042.68 1061.14C1030.07 1063.86 1017.32 1066.61 1004.75 1069.01C990.241 1071.77 975.685 1074.42 961.279 1076.76C947.62 1078.99 934.309 1081.53 920.839 1083.99C908.43 1086.25 896.083 1088.33 883.777 1090.62C873.188 1092.58 862.759 1094.47 852.239 1096.45C840.508 1098.66 828.815 1100.9 817.111 1103.12C804.114 1105.58 791.189 1107.97 778.169 1110.29C766.684 1112.35 755.209 1114.37 743.676 1116.32C732.144 1118.26 720.607 1120.21 709.011 1121.99C697.825 1123.7 686.674 1125.44 675.403 1126.89C665.2 1128.21 654.894 1129.23 644.616 1130.32C635.914 1131.24 627.208 1132.14 618.433 1132.9C610.745 1133.56 602.991 1134.12 595.219 1134.53C588.878 1134.87 582.469 1135.17 576.073 1135.37C560.881 1135.83 545.623 1136.06 530.406 1136.32C529.037 1136.34 527.663 1136.36 526.286 1136.35C517.179 1136.26 508.116 1136.28 498.991 1136.05C491.168 1135.85 483.26 1135.53 475.425 1135.09C464.492 1134.48 453.561 1133.72 442.639 1132.96C434.295 1132.39 425.981 1131.73 417.65 1130.91C408.117 1129.96 398.572 1128.91 389.065 1127.7C377.843 1126.27 366.671 1124.71 355.486 1123.06C349.852 1122.23 344.254 1121.19 338.65 1120.17C332.281 1119.01 325.873 1117.87 319.537 1116.58C312.19 1115.08 304.884 1113.53 297.598 1111.78C287.8 1109.43 277.973 1107.02 268.236 1104.45C260.165 1102.32 252.183 1100.02 244.225 1097.52C234.949 1094.61 225.682 1091.71 216.523 1088.43C205.672 1084.54 194.909 1080.38 184.255 1075.98C175.344 1072.3 166.574 1068.32 157.849 1064.24C149.906 1060.52 142.096 1056.64 134.388 1052.44C125.472 1047.58 116.68 1042.48 108.013 1037.17C99.8597 1032.18 91.9909 1026.81 84.0425 1021.48C79.7562 1018.61 75.6236 1015.52 71.3856 1012.51C70.9751 1012.22 70.3852 1011.75 69.9758 1011.42C71.3996 1010.73 73.1629 1010.04 74.5383 1009.36C82.9422 1005.24 90.5564 1000.32 98.1394 994.938C100.723 993.102 102.89 990.823 105.688 989.285C109.505 987.185 113.021 986.901 117.136 988.496C119.212 989.3 120.532 991.329 122.269 992.723C128.069 997.378 133.672 1002.32 139.653 1006.79C146.629 1011.99 153.857 1016.74 161.565 1020.82C166.995 1023.69 172.614 1025.8 178.579 1027.35C182.517 1028.38 186.506 1028.36 190.54 1028.05C192.012 1027.93 193.143 1028.22 194.356 1029.03C208.892 1038.77 223.762 1047.61 239.42 1055.38C247.738 1059.5 256.157 1063.39 264.748 1066.87C274.534 1070.84 284.452 1074.4 294.428 1077.89C302.053 1080.56 309.787 1083.03 317.585 1085.18C328.623 1088.23 339.701 1091.13 350.869 1093.69C361.031 1096.02 371.241 1098.04 381.501 1099.91C393.205 1102.04 404.948 1103.85 416.744 1105.43C429.479 1107.13 442.25 1108.36 455.041 1109.55C465.77 1110.55 476.543 1111.23 487.28 1111.97C493.376 1112.39 499.451 1112.68 505.537 1112.88C516.178 1113.23 526.869 1113.47 537.482 1113.58C553.59 1113.73 569.663 1113.53 585.712 1113.3C592.619 1113.21 599.438 1112.79 606.253 1112.32C614.744 1111.73 623.173 1111.15 631.599 1110.48C640.442 1109.77 649.258 1108.9 658.023 1107.9C667.201 1106.84 676.415 1105.85 685.518 1104.68C697.084 1103.2 708.722 1101.46 720.151 1099.72C731.579 1097.98 742.778 1096.31 754.11 1094.5C766.094 1092.58 778.003 1090.51 789.937 1088.48C802.199 1086.4 814.354 1084.29 826.616 1082.22C835.874 1080.66 845.116 1079.09 854.395 1077.46C867.419 1075.18 880.426 1073.23 893.535 1071.06C903.043 1069.5 912.49 1068 922.111 1066.37C940.03 1063.32 957.942 1060.79 976.084 1058.19C988.512 1056.41 1000.99 1054.21 1013.56 1052.03C1030.56 1049.1 1047.56 1045.62 1064.67 1042.35C1081.78 1039.07 1099.06 1035.84 1116.34 1032.7C1130.63 1030.1 1145.16 1027.53 1159.58 1025.1C1169.93 1023.36 1180.28 1021.87 1190.74 1020.19C1207.48 1017.51 1224.57 1015.33 1241.46 1013.53C1251.57 1012.45 1261.34 1011.43 1271.49 1010.3C1284.29 1008.87 1297.27 1007.94 1310.2 1007.33C1318.49 1006.94 1326.56 1006.42 1334.92 1005.94C1345.53 1005.33 1356.44 1004.84 1367.12 1004.62C1377.16 1004.42 1387.14 1004.31 1397.18 1004.23C1402.42 1004.18 1407.58 1004.14 1412.86 1004.1C1419.78 1004.05 1426.8 1003.9 1433.76 1003.93C1434.64 1003.94 1435.53 1004.15 1436.33 1004.52C1434.04 1004.64 1431.76 1004.8 1429.46 1004.91H1429.46Z" fill="#FC6363"/>
<path d="M464.24 990.644C469.684 991.765 475.14 992.839 480.604 993.825C484.109 994.458 487.617 995.067 491.128 995.661C492.048 992.545 493.362 989.618 494.939 986.839C490.316 986.049 485.697 985.24 481.095 984.402C474.573 983.217 468.056 981.915 461.56 980.541C461.681 980.876 461.811 981.208 461.927 981.547C462.955 984.543 463.724 987.577 464.238 990.644H464.24Z" fill="#FC6363"/>
<path d="M808.168 1023.87C803.459 1023.75 798.744 1023.59 794.053 1023.2C789.343 1022.8 784.631 1022.72 779.923 1022.75C764.052 1022.86 748.31 1024.32 732.708 1027.32C725.568 1028.69 718.411 1030.11 711.079 1029.93C704.102 1029.76 697.892 1027.97 692.727 1023.96C691.595 1024.03 690.469 1024.1 689.334 1024.17C680.169 1024.68 670.989 1025.18 661.792 1025.61C654.601 1025.95 647.399 1026.27 640.175 1026.43C633.636 1026.58 627.107 1026.68 620.532 1026.67C612.437 1026.66 604.376 1026.62 596.231 1026.44C585.121 1026.19 574.028 1025.73 562.882 1024.95C557.157 1024.55 551.379 1024.06 545.606 1023.54C540.38 1023.71 535.148 1023.69 529.939 1024.01C524.784 1024.32 519.645 1024.25 514.504 1024.21C511.522 1024.19 508.554 1023.6 505.755 1022.39C503.676 1021.49 501.833 1020.34 500.32 1018.67C493.763 1017.87 487.202 1017.02 480.682 1016.08C474.611 1015.19 468.543 1014.28 462.486 1013.3C460.965 1017.14 458.72 1020.66 455.652 1023.78C455.273 1024.17 454.878 1024.53 454.483 1024.89C463.27 1026.43 472.08 1027.74 480.907 1029.12C488.121 1030.25 495.381 1031.08 502.629 1031.95C510.986 1032.95 519.362 1033.83 527.728 1034.7C531.655 1035.11 535.605 1035.44 539.534 1035.74C549.188 1036.48 558.96 1037.23 568.578 1037.83C575.984 1038.29 583.327 1038.41 590.672 1038.45C600.727 1038.5 610.815 1038.54 620.806 1038.58C638.361 1038.64 655.784 1037.64 673.277 1036.88C678.807 1036.64 684.316 1036.28 689.799 1035.9C696.027 1035.47 702.169 1035.02 708.363 1034.48C717.032 1033.72 725.678 1033.09 734.349 1032.37C740.951 1031.82 747.566 1031.13 754.161 1030.46C762.322 1029.63 770.542 1028.87 778.686 1028.05C787.816 1027.13 796.835 1026.2 805.959 1025.21C810.259 1024.74 814.577 1024.3 818.898 1023.86C815.329 1024.01 811.748 1023.97 808.167 1023.87L808.168 1023.87Z" fill="#FC6363"/>
<path d="M137.021 895.28C140.898 895.28 144.041 893.454 144.041 891.201C144.041 888.949 140.898 887.123 137.021 887.123C133.144 887.123 130.001 888.949 130.001 891.201C130.001 893.454 133.144 895.28 137.021 895.28Z" fill="#FC6363"/>
<path d="M173.39 906.217C174.771 904.178 173.413 900.846 170.356 898.774C167.3 896.702 163.702 896.675 162.321 898.713C160.94 900.751 162.298 904.083 165.355 906.155C168.411 908.227 172.009 908.255 173.39 906.217Z" fill="#FC6363"/>
<path d="M119.73 906.689C127.369 914.637 139.26 918.445 150.033 919.701C153.832 920.209 157.565 919.813 161.341 919.75C171.146 920.339 170.981 934.389 161.163 934.754C152.041 934.472 143.011 931.55 134.933 927.546C126.907 923.354 119.432 918.25 114.424 910.354C112.392 906.86 117.188 903.569 119.73 906.69V906.689Z" fill="#FC6363"/>
<path d="M1578.09 639.385C1610.93 632.692 1588.95 591.643 1577.67 573.758C1576.7 572.419 1578.4 567.276 1580.23 565.463C1651.35 510.56 1578.32 508.469 1534.53 525.529C1523.25 527.329 1516.98 512.676 1508.46 506.896C1498.02 493.034 1478.85 505.04 1480.01 521.563C1480.92 529.96 1482.02 538.335 1482.78 546.752C1483.5 566.667 1461.56 572.403 1449.91 583.391C1425.48 605.396 1451.63 627.183 1475.63 621.044C1490.26 620.893 1487.04 620.548 1489.8 634.524C1497.27 691.419 1522.79 661.906 1540.08 629.413C1550.04 617.324 1565.82 639.118 1578.1 639.385M1579.39 622.038C1573.08 635.847 1558.62 616.498 1549.6 614.47C1524.85 595.212 1515.09 670.272 1504.73 647.016C1503.28 640.31 1501.63 633.534 1501.28 626.691C1499.39 591.988 1446.27 621.124 1454.31 600.484C1462.63 583.173 1485.29 581.127 1495.46 567.125C1495.74 557.126 1479.7 498.288 1502.39 514.22C1532.45 548.375 1527.36 540.7 1568.8 529.914C1620.01 519.816 1583.56 545.315 1564.86 560.842C1548.63 570.804 1585.79 597.435 1579.39 622.038Z" fill="#FC6363"/>
<path d="M126.297 691.817C97.1185 716.796 75.4967 668 67.2755 645.202C66.7511 643.377 60.9013 641.297 57.9721 641.676C-41.7543 667.314 7.80323 599.796 54.0737 572.208C63.6457 563.276 54.8205 547.279 55.5931 535.507C50.4203 516.297 74.7779 507.42 88.8972 520.105C95.843 526.846 102.639 533.74 109.712 540.356C127.209 555.034 147.844 539.242 165.99 536.437C203.088 529.848 204.361 568.844 181.904 586.225C171.46 599.353 173.414 596.2 184.103 608.54C230.267 655.378 185.613 657.665 144.064 650.412C126.119 650.904 134.704 680.526 126.299 691.815M110.554 663.184C123.865 666.351 118.126 645.338 121.677 637.805C121.7 609.528 180.477 644.169 169.683 623.915C165.717 619.17 161.812 614.244 157.143 610.2C133.515 589.631 183.666 567.984 164.535 562.27C147.615 558.598 133.609 573.581 118.014 573.061C110.749 567.72 77.8113 523.703 76.5637 548.674C84.1929 588.978 81.556 581.107 50.9232 604.61C15.3712 635.439 53.6934 623.643 75.0948 618.943C91.172 612.915 89.5194 654.102 110.554 663.184Z" fill="#FC6363"/>
<path d="M93.5854 596.708C95.4095 594.775 95.43 591.832 93.6313 590.133C91.8325 588.435 88.8956 588.625 87.0715 590.558C85.2474 592.492 85.2269 595.435 87.0257 597.134C88.8244 598.832 91.7614 598.641 93.5854 596.708Z" fill="#FC6363"/>
<path d="M112.333 587.695C114.804 587.146 116.415 584.936 115.931 582.758C115.447 580.58 113.052 579.26 110.582 579.809C108.111 580.359 106.5 582.569 106.984 584.747C107.467 586.924 109.862 588.245 112.333 587.695Z" fill="#FC6363"/>
<path d="M100.398 604.769C103.793 600.625 107.999 596.18 113.781 596.359C117.518 596.3 120.294 600.202 118.896 603.69C116.358 609.894 107.281 612.496 101.206 610.361C99.2793 609.648 98.5745 607.155 99.8198 605.532L100.397 604.77L100.398 604.769Z" fill="#FC6363"/>
<path d="M1532.16 558.031C1535.45 557.703 1537.95 555.892 1537.76 553.985C1537.57 552.077 1534.76 550.797 1531.47 551.124C1528.19 551.451 1525.68 553.263 1525.88 555.17C1526.07 557.078 1528.88 558.358 1532.16 558.031Z" fill="#FC6363"/>
<path d="M1509.09 569.639C1511.51 567.626 1512.38 564.69 1511.04 563.082C1509.69 561.473 1506.65 561.8 1504.24 563.812C1501.82 565.825 1500.96 568.76 1502.3 570.369C1503.64 571.978 1506.68 571.651 1509.09 569.639Z" fill="#FC6363"/>
<path d="M1552.57 568.893C1545.93 581.782 1529.12 591.486 1515.06 593.498C1506.73 594.046 1505.39 582.124 1513.63 580.812C1515.28 580.587 1516.94 580.69 1518.61 580.506C1529.24 579.279 1540.94 574.736 1547.77 566.24C1549.66 563.378 1554 565.779 1552.57 568.893Z" fill="#FC6363"/>
<path d="M1477.4 853.386C1477.46 851.345 1475.35 849.633 1472.69 849.561C1470.04 849.49 1467.84 851.086 1467.78 853.127C1467.73 855.168 1469.84 856.88 1472.5 856.951C1475.15 857.023 1477.35 855.426 1477.4 853.386Z" fill="#FC6363"/>
<path d="M1498.08 865.438C1499.2 863.875 1498.44 861.412 1496.38 859.935C1494.33 858.459 1491.75 858.529 1490.63 860.092C1489.51 861.655 1490.27 864.119 1492.32 865.595C1494.38 867.072 1496.95 867.001 1498.08 865.438Z" fill="#FC6363"/>
<path d="M1467.61 863.152C1471.11 867.484 1476.64 869.366 1481.99 870.622C1484.01 871.152 1486.17 871.477 1488.37 872.108C1489.68 872.473 1490.44 873.829 1490.08 875.135C1489.84 875.983 1489.18 876.602 1488.39 876.832C1484.84 877.893 1480.98 877.962 1477.3 877.25C1470.87 875.88 1463.7 871.278 1463.28 864.011C1463.23 861.983 1465.93 861.035 1467.17 862.606L1467.61 863.151V863.152Z" fill="#FC6363"/>
</g>
<defs>
<clipPath id="clip0_1408_77">
<rect width="1610" height="688" fill="white" transform="translate(0 461)"/>
</clipPath>
</defs>
</svg>
